<?xml version="1.0" encoding="utf-8"?>
<!-- Generator: Adobe Illustrator 19.0.0, SVG Export Plug-In . SVG Version: 6.00 Build 0)  -->
<svg
	version="1.1" xmlns="http://www.w3.org/2000/svg" xmlns:xlink="http://www.w3.org/1999/xlink" 
	x="0px" y="0px"
	viewBox="0 0 1800 400"
	class="magicgreen-junglestar-org-qr-code">
  <title>mg_logo</title>
<g id="Layer_1">
	<rect id="cleste" style="display:none;fill:#1BAEEF;" width="1800" height="400"/>
	<rect id="greendark" style="display:none;fill:#006100;" width="1800" height="400"/>
	<rect id="black_1_" width="1800" height="400"/>
	<rect id="XMLID_136_" x="1950" y="350" style="display:none;fill:#00E300;" width="50" height="50"/>
	<g id="XMLID_15_">
		<path id="XMLID_177_" style="fill:#00E300;" d="M210,342.6c-21.3,0-41.1-3.4-59-10c-17.9-6.6-34.3-16.7-48.6-30
			c-13.8-12.6-24.8-28.1-32.7-46c-7.9-18-12-36.8-12-56c0-18.9,2.1-35.5,6.3-49.6c4.2-14,9.9-26.8,17.1-38.2
			C88.8,101.1,97.8,90.7,108,82c8.1-6.9,17.1-12.9,26.8-17.8c3.7-2.3,7.9-3.5,12.3-3.5c12.7,0,23.1,10.3,23.1,23.1
			c0,9.6-6,18.2-14.9,21.6c-2,1.1-4.1,2.2-6.4,3.3c-11.8,6-25.8,19.9-33.3,32.9c-8,14.1-12.1,30.4-12.1,48.4
			c0,18.3,2.8,34.1,8.2,46.8c5.4,12.7,13,23.5,22.4,32.2c19.6,18,45.2,27.2,76,27.2c31.1,0,56.6-9,76-26.8
			c20.3-18.7,30.6-44,30.6-75.1c0-24.9-7.8-46.7-23.1-64.6c-14.4-17-33.3-26.4-56.2-28v96.1c0,0,0,0.1,0,0.2l0,0.2
			c0,12-9.7,21.7-21.7,21.7c-11.6,0-21.3-9.3-21.7-20.9c-0.1-0.4-0.1-0.8-0.1-1.2v-133c0-4,3.2-7.2,7.2-7.2h139.2c0.1,0,0.3,0,0.4,0
			c11.8,0.3,21.4,10.1,21.4,22c0,12-9.7,21.8-21.7,22c-0.1,0-0.3,0-0.4,0h-17.5c5.8,5.4,11.1,11.3,15.7,17.6
			c8.7,11.9,15.3,25.6,19.6,40.8c0,0,0,0.1,0,0.1c3,11.1,4.5,25.8,4.5,43.6c0,18.2-4,36.5-11.9,54.5c-7.9,18-19,33.5-32.8,46
			c-14,12.9-30.3,22.6-48.2,29.1C251.5,339.4,231.6,342.6,210,342.6z M207.9,284.3c-12.3,0-24.2-2.3-35.4-7
			c-21.4-8.9-37.2-25.2-44.4-45.9c-0.1-0.3-0.2-0.6-0.2-0.9c-0.1-0.3-0.3-0.7-0.4-1c-3.8-11.1,2-23.2,13.1-27.1
			c2.3-0.8,4.6-1.2,7-1.2c9.1,0,17.1,5.8,20.1,14.3c0.1,0.4,0.3,0.8,0.4,1.3c0.1,0.2,0.2,0.4,0.3,0.6c5.7,16.4,22,27,41.5,27
			c5.9,0,11.9-1,17.6-3c25-8.7,39.2-33.6,31.6-55.4c-0.1-0.3-0.2-0.6-0.2-0.8c-0.1-0.4-0.3-0.7-0.4-1.1c-1.9-5.4-1.5-11.1,1-16.3
			c2.5-5.1,6.8-9,12.2-10.8c2.3-0.8,4.6-1.2,7-1.2c9.1,0,17.1,5.8,20.1,14.3c0.1,0.4,0.3,0.8,0.4,1.2c0.1,0.2,0.2,0.5,0.3,0.7
			c7.2,20.7,4.9,43.3-6.4,63.5c-11.2,20-29.8,35.3-52.5,43.2C229.9,282.5,218.9,284.3,207.9,284.3z M153,188.9
			c-14.8,0-26.8-12-26.8-26.8s12-26.8,26.8-26.8s26.8,12,26.8,26.8S167.8,188.9,153,188.9z"/>
		<path id="XMLID_158_" d="M340.2,61.4L340.2,61.4c9.8,0.1,17.8,8.1,17.8,18c0,9.9-8,18-18,18c0,0-0.1,0-0.1,0l0,0h-28.3
			c9,7,16.8,15.1,23.3,24c8.4,11.5,14.8,24.8,19,39.5c0,0,0,0,0,0c2.9,10.8,4.4,25.1,4.4,42.6c0,17.6-3.9,35.4-11.6,52.9
			c-7.7,17.4-18.4,32.5-31.8,44.7c-13.7,12.5-29.4,22-46.9,28.3c-17.4,6.2-36.9,9.4-58,9.4c-20.8,0-40.2-3.3-57.6-9.7
			c-17.4-6.5-33.3-16.3-47.3-29.2c-13.4-12.2-24.1-27.3-31.8-44.7c-7.7-17.4-11.6-35.7-11.6-54.4c0-18.5,2.1-34.8,6.1-48.4
			c4.1-13.6,9.7-26.1,16.6-37.2l0,0c7.4-11.5,16.2-21.6,26.1-30c7.9-6.7,16.7-12.5,26.2-17.4c3-1.9,6.5-3,10.3-3
			c10.5,0,19.1,8.5,19.1,19.1c0,8.3-5.2,15.3-12.6,17.9c-2,1.1-4.1,2.2-6.5,3.4c-11.8,6-26.6,19.8-34.9,34.5
			c-8.4,14.7-12.6,31.7-12.6,50.4c0,18.9,2.9,35.1,8.5,48.4c5.6,13.2,13.5,24.5,23.4,33.5c20.4,18.7,46.9,28.2,78.7,28.2
			c32.1,0,58.6-9.4,78.7-27.8c21.2-19.5,31.9-45.8,31.9-78.1c0-25.9-8.1-48.5-24-67.2c-16-18.9-37.3-28.9-63.2-29.6v100.3
			c0,0,0,0.1,0,0.1c0,0.1,0,0.2,0,0.3c0,9.8-7.9,17.7-17.7,17.7c-9.7,0-17.5-7.7-17.7-17.4c-0.1-0.2-0.1-0.5-0.1-0.8v-133
			c0-1.8,1.4-3.2,3.2-3.2H340.2 M153,139.2c12.6,0,22.8,10.2,22.8,22.8c0,12.6-10.2,22.8-22.8,22.8c-12.6,0-22.8-10.2-22.8-22.8
			C130.2,149.4,140.4,139.2,153,139.2 M278.7,159.8c7.2,0,13.9,4.5,16.3,11.6c0.2,0.4,0.3,0.9,0.4,1.3c0.1,0.2,0.2,0.4,0.3,0.6
			c6.8,19.6,4.6,41-6.1,60.3c-10.7,19.1-28.6,33.8-50.4,41.4c-10.3,3.6-20.9,5.4-31.3,5.4c-11.7,0-23.2-2.2-33.8-6.7
			c-20.3-8.5-35.3-23.9-42.1-43.6c-0.1-0.2-0.1-0.5-0.2-0.7c-0.2-0.4-0.3-0.8-0.5-1.2c-3.1-9,1.6-18.9,10.7-22c1.9-0.6,3.8-1,5.7-1
			c7.2,0,13.9,4.5,16.3,11.6c0.2,0.5,0.3,0.9,0.4,1.4c0.1,0.2,0.2,0.3,0.2,0.5c6.4,18.4,24.8,29.7,45.3,29.7c6.2,0,12.6-1,18.9-3.2
			c27.1-9.4,42.4-36.6,34.1-60.5c-0.1-0.2-0.1-0.4-0.2-0.7c-0.2-0.4-0.3-0.8-0.5-1.2c-3.1-9,1.6-18.9,10.7-22
			C274.9,160.1,276.8,159.8,278.7,159.8 M340.2,53.4H201c-6.2,0-11.2,5-11.2,11.2v133c0,0.5,0,1.1,0.1,1.6c0.3,6.5,3,12.6,7.7,17.1
			c4.8,4.7,11.2,7.4,18,7.4c14.2,0,25.7-11.5,25.7-25.7c0-0.1,0-0.1,0-0.2c0-0.1,0-0.1,0-0.2V106c19.8,2.3,36.3,11.1,49.1,26.2
			c14.7,17.2,22.1,38.1,22.1,62.1c0,30-9.9,54.2-29.3,72.2c-18.6,17-43.2,25.7-73.2,25.7c-29.7,0-54.4-8.8-73.3-26.1
			c-9-8.3-16.3-18.7-21.4-30.8c-5.2-12.2-7.9-27.4-7.9-45.2c0-17.3,3.9-32.9,11.6-46.4c8-14.1,22-26.4,31.6-31.3
			c2.2-1.1,4.3-2.2,6.3-3.3c10.3-4,17.2-14.1,17.2-25.2c0-14.9-12.1-27.1-27.1-27.1c-5.1,0-10,1.4-14.2,4.1
			c-9.9,5.1-19.1,11.2-27.4,18.2c-10.5,8.9-19.8,19.6-27.6,31.8c0,0,0,0,0,0.1c-7.4,11.7-13.3,24.9-17.5,39.2
			c-4.3,14.4-6.5,31.5-6.5,50.7c0,19.7,4.1,39.1,12.3,57.6c8.2,18.5,19.5,34.4,33.7,47.4c14.7,13.6,31.5,24,49.9,30.8
			c18.3,6.8,38.6,10.2,60.4,10.2c22,0,42.4-3.3,60.7-9.9c18.4-6.6,35.1-16.7,49.6-29.9c14.2-13,25.6-28.9,33.7-47.4
			c8.2-18.5,12.3-37.3,12.3-56.1c0-18.2-1.6-33.2-4.7-44.6c0,0,0-0.1,0-0.1c0,0,0,0,0-0.1c-4.5-15.6-11.3-29.7-20.2-42
			c-2.8-3.9-5.9-7.7-9.3-11.3h7.8c0.2,0,0.4,0,0.6,0c14.1-0.3,25.5-11.8,25.5-26c0-14-11.2-25.5-25.1-25.9
			C340.7,53.4,340.4,53.4,340.2,53.4L340.2,53.4z M153,131.2c-17,0-30.8,13.8-30.8,30.8c0,17,13.8,30.8,30.8,30.8
			c17,0,30.8-13.8,30.8-30.8C183.9,145.1,170,131.2,153,131.2L153,131.2z M278.7,151.8c-2.8,0-5.6,0.5-8.3,1.4
			c-6.4,2.2-11.5,6.8-14.5,12.9c-2.9,6.1-3.4,12.9-1.1,19.3c0.1,0.3,0.2,0.6,0.4,1c0.1,0.3,0.2,0.6,0.3,0.9
			c6.9,19.8-6.2,42.4-29.2,50.4c-5.3,1.8-10.8,2.8-16.3,2.8c-8.7,0-16.8-2.3-23.6-6.7c-6.7-4.3-11.6-10.4-14.1-17.6
			c-0.1-0.2-0.2-0.5-0.3-0.7c-0.1-0.4-0.3-0.8-0.4-1.2c-3.5-10.2-13.1-17-23.9-17c-2.8,0-5.6,0.5-8.3,1.4
			c-13.2,4.6-20.2,19-15.6,32.2c0.1,0.3,0.2,0.6,0.3,0.9c0.1,0.3,0.2,0.7,0.3,1c7.6,21.8,24.1,39,46.6,48.3
			c11.6,4.8,24,7.3,36.9,7.3c11.4,0,22.9-1.9,34-5.8c23.7-8.2,43.1-24.2,54.7-45c11.9-21.3,14.2-45,6.7-66.8
			c-0.1-0.3-0.2-0.5-0.3-0.8c-0.1-0.4-0.2-0.8-0.4-1.1C299.1,158.7,289.5,151.8,278.7,151.8L278.7,151.8z"/>
	</g>
	<g id="XMLID_127_">
		<path id="XMLID_206_" style="fill:#00E300;" d="M1600.3,197l3.3,128.5l-48.3,10.2c-0.1-4.5-0.2-9.4-0.3-14.4
			c-0.6-31.3-1.4-70.3-2.2-94.3c-0.5-13-1-26.4-1.7-39.7c-0.7-13.5-1.4-26.9-2.2-39.7c-0.8-12.9-1.7-25.1-2.7-36.2
			c-0.8-8.6-1.6-16.4-2.4-23.3l43.3-9.9l92.3,160.8l-2.7-31.5c-1.3-15.3-2.8-31.7-4.4-48.5c-1.3-14-2.9-29.6-4.7-47.6
			c-1.6-15.5-3.3-30.9-5-46.1l55.2-10.3c1.2,12.1,2.3,24.7,3.2,37.6c1.1,15.5,2.1,31.3,2.9,46.8c0.8,15.5,1.5,30.9,2,45.9
			c0.6,15.3,1.1,29.8,1.5,43.1c0.8,26.7,1.4,61.9,1.6,95.2l-55,13.5L1600.3,197z"/>
		<path id="XMLID_149_" d="M1711.5,63.2c0.9,9.7,1.7,19.7,2.5,29.8c1.1,15.5,2.1,31.2,2.8,46.6c0.8,15.4,1.5,30.9,2,45.8
			c0.6,15.1,1.1,29.6,1.5,43.1c0.7,25.2,1.3,58,1.6,89.5l-44.3,10.9l-57.2-108.7l-27.9-53.1l1.5,60l2.4,92.6l-34.3,7.2
			c0-2-0.1-4-0.1-6c-0.6-31.3-1.4-70.3-2.2-94.3c-0.5-13-1-26.4-1.7-39.8c-0.7-13.5-1.4-26.9-2.2-39.8c-0.8-12.9-1.7-25.2-2.7-36.4
			c-0.6-6.2-1.1-11.9-1.7-17.3l32.1-7.3l74,128.9L1689,270l-5.4-63c-1.3-15.3-2.8-31.6-4.4-48.6c-1.3-14-2.9-29.6-4.7-47.7
			c-1.4-13.3-2.8-26.6-4.3-39.7L1711.5,63.2 M1723.9,46.7l-69,12.9c2,17.5,3.9,35,5.7,52.5c1.8,17.5,3.4,33.4,4.7,47.6
			c1.6,16.6,3,32.8,4.4,48.5l-79.1-137.9L1536,82.7c1.1,8.3,2.2,18.1,3.2,29.4c1,11.3,1.9,23.3,2.7,36c0.8,12.8,1.5,25.9,2.2,39.6
			c0.7,13.6,1.2,26.8,1.7,39.6c1.1,30.2,2,84.1,2.7,117l62.3-13.1l-2.7-104.3l62.3,118.4l65.7-16.2c-0.2-30.8-0.8-69.2-1.7-100.9
			c-0.5-13.6-1-28-1.5-43.1c-0.6-15.1-1.2-30.5-2-46c-0.8-15.6-1.7-31.2-2.9-46.9C1726.8,76.3,1725.4,61.2,1723.9,46.7L1723.9,46.7z
			"/>
	</g>
	<path id="XMLID_38_" style="display:none;" d="M1717.3,55.4c1.2,12,2.3,24.4,3.2,37.1c1.1,15.5,2.1,31.2,2.9,46.8
		c0.8,15.5,1.5,30.9,2,45.9c0.6,15.1,1.1,29.6,1.5,43.1c0.8,26.6,1.4,61.7,1.6,94.9l-54.3,13.4l-59.6-113.3l-14.8-28.1l0.8,31.8
		l2.5,98.1l-47.5,10c-0.1-4.4-0.2-9.1-0.3-13.9c-0.6-31.3-1.4-70.2-2.2-94.2c-0.5-13-1-26.4-1.7-39.7c-0.7-13.5-1.4-26.8-2.2-39.7
		c-0.8-12.9-1.7-25.1-2.7-36.2c-0.8-8.4-1.6-16.1-2.4-23l42.6-9.7l76.4,133.1l16.7,29.1l-2.9-33.4c-1.3-15.3-2.8-31.6-4.4-48.5
		c-1.3-14-2.9-29.6-4.7-47.7c-1.6-15.3-3.2-30.7-4.9-45.7L1717.3,55.4"/>
	<path id="XMLID_37_" style="display:none;" d="M1723.9,46.7l-69,12.9c2,17.5,3.9,35,5.7,52.5c1.8,17.5,3.4,33.4,4.7,47.6
		c1.6,16.6,3,32.8,4.4,48.5l-79.1-137.9L1536,82.7c1.1,8.3,2.2,18.1,3.2,29.4c1,11.3,1.9,23.3,2.7,36c0.8,12.8,1.5,25.9,2.2,39.6
		c0.7,13.6,1.2,26.8,1.7,39.6c1.1,30.2,2,84.1,2.7,117l62.3-13.1l-2.7-104.3l62.3,118.4l65.7-16.2c-0.2-30.8-0.8-69.2-1.7-100.9
		c-0.5-13.6-1-28-1.5-43.1c-0.6-15.1-1.2-30.5-2-46c-0.8-15.6-1.7-31.2-2.9-46.9C1726.8,76.3,1725.4,61.2,1723.9,46.7L1723.9,46.7z"
		/>
	<g id="XMLID_93_">
		<path id="XMLID_147_" style="fill:#00E300;" d="M1446.7,337.9c-0.3-39.3-2.8-79.7-7.4-120.1c-4.8-41.7-13.2-82.1-24.9-120.3
			l41.3-41.7l110.8,28.9l-32.4,39.6l-60.7-6.5l2.8,9.9c0.9,3.1,1.7,6.8,2.6,11c1.5,7.6,3.6,19.6,6,35.7l0.9,6h62.5l-12.2,39.4h-46.5
			l0.5,7.5c0.4,6.4,0.9,13,1.3,19.7c0.4,6.6,0.8,14,1,21.8l0.2,6.3l82.1,5.7l-10,57l-15.4-1.7c-6.7-0.7-14.3-1.2-22.6-1.7
			c-8.4-0.5-16.9-0.7-25.3-0.7c-4.4,0-10.2,0.2-17.2,0.7c-6.8,0.5-13.7,1-20.5,1.7l-0.2,0C1458,336.8,1452.4,337.4,1446.7,337.9z"/>
		<path id="XMLID_125_" d="M1457.8,63.6l96.3,25.1l-23.1,28.2l-46.7-5l-20.5-2.2l5.5,19.9c0.8,2.9,1.6,6.4,2.5,10.6
			c1.5,7.4,3.5,19.3,5.9,35.3l1.8,11.9h12h47l-7.8,25.4H1497h-15l1,15c0.4,6.4,0.9,13,1.3,19.7c0.4,6.5,0.8,13.8,1,21.6l0.4,12.7
			l12.7,0.9l68,4.7l-7.5,42.9l-8.8-1l-0.1,0l-0.1,0c-6.7-0.7-14.4-1.2-22.8-1.7c-8.5-0.5-17.2-0.7-25.7-0.7
			c-4.6,0-10.4,0.2-17.6,0.8c-6.8,0.5-13.8,1.1-20.7,1.7l-0.2,0l-0.2,0c-2.9,0.4-5.9,0.7-9,1c-0.5-37.1-3-75.1-7.4-113.2
			c-4.7-40.7-12.7-80.2-24-117.5L1457.8,63.6 M1453.5,48l-47.1,47.6c12.3,39.1,21,80.1,25.9,123c4.9,42.9,7.4,85.2,7.4,126.9
			c8.5-0.6,16.7-1.4,24.6-2.4c6.7-0.6,13.5-1.2,20.4-1.7c6.8-0.5,12.4-0.7,16.7-0.7c8.3,0,16.6,0.2,24.9,0.7
			c8.3,0.5,15.7,1,22.2,1.7l21.9,2.4l12.5-71.1l-83.5-5.8c-0.2-8-0.6-15.4-1-22.1c-0.5-6.7-0.9-13.3-1.3-19.7h44.1l16.5-53.4h-66
			c-2.5-16.3-4.5-28.4-6.1-36c-0.9-4.5-1.8-8.3-2.7-11.5l54.2,5.8l41.8-50.9L1453.5,48L1453.5,48z"/>
	</g>
	<path id="XMLID_42_" style="display:none;" d="M1455.9,56.6l109.3,28.5l-31.5,38.4l-50.1-5.3l-11.3-1.2l3.1,10.9
		c0.8,3,1.7,6.7,2.6,11c1.5,7.5,3.6,19.5,6,35.7l1,6.6h6.6h55.5l-11.7,37.9H1497h-8.3l0.6,8.2c0.4,6.4,0.9,13,1.3,19.7
		c0.4,6.6,0.8,14,1,21.8l0.2,7l7,0.5l75,5.2l-9.7,55.6l-14.7-1.6l0,0l0,0c-6.6-0.7-14.2-1.2-22.5-1.7c-8.4-0.5-17-0.7-25.4-0.7
		c-4.4,0-10.2,0.2-17.2,0.7c-6.8,0.5-13.7,1-20.6,1.7l-0.1,0l-0.1,0c-5.2,0.6-10.5,1.2-16,1.7c-0.3-39.1-2.8-79.2-7.4-119.4
		c-4.8-41.6-13.1-81.9-24.8-120L1455.9,56.6"/>
	<path id="XMLID_41_" style="display:none;" d="M1453.5,48l-47.1,47.6c12.3,39.1,21,80.1,25.9,123c4.9,42.9,7.4,85.2,7.4,126.9
		c8.5-0.6,16.7-1.4,24.6-2.4c6.7-0.6,13.5-1.2,20.4-1.7c6.8-0.5,12.4-0.7,16.7-0.7c8.3,0,16.6,0.2,24.9,0.7c8.3,0.5,15.7,1,22.2,1.7
		l21.9,2.4l12.5-71.1l-83.5-5.8c-0.2-8-0.6-15.4-1-22.1c-0.5-6.7-0.9-13.3-1.3-19.7h44.1l16.5-53.4h-66c-2.5-16.3-4.5-28.4-6.1-36
		c-0.9-4.5-1.8-8.3-2.7-11.5l54.2,5.8l41.8-50.9L1453.5,48L1453.5,48z"/>
	<g id="XMLID_92_">
		<path id="XMLID_115_" style="fill:#00E300;" d="M1337.8,335.3c-0.3-40-2.8-81.2-7.4-122.3c-4.8-42.5-13.2-83.7-25-122.6l41.4-42.5
			l110.9,29.5l-32.6,40.5l-60.6-6.6l2.7,9.9c0.9,3.1,1.7,6.9,2.6,11.2c1.5,7.7,3.6,19.9,6,36.4l0.9,6h62.6L1427,215h-46.4l0.5,7.5
			c0.4,6.5,0.9,13.2,1.3,20c0.4,6.7,0.8,14.2,1,22.2l0.2,6.3l82.1,5.8l-10,58.3l-15.3-1.7c-6.7-0.7-14.3-1.3-22.6-1.7
			c-8.4-0.5-16.9-0.7-25.3-0.7c-4.4,0-10.2,0.3-17.2,0.8c-6.8,0.5-13.7,1.1-20.5,1.7l-0.2,0C1349.1,334.2,1343.5,334.8,1337.8,335.3
			z"/>
		<path id="XMLID_111_" d="M1349,55.7l96.5,25.6l-23.4,29.1l-46.6-5l-20.4-2.2l5.4,19.8c0.8,3,1.6,6.6,2.5,10.8
			c1.5,7.6,3.5,19.7,5.9,36l1.8,11.9h12.1h47.1l-8,26.3h-33.7h-15l1,15c0.4,6.5,0.9,13.2,1.3,20c0.4,6.7,0.8,14.1,1,22l0.4,12.7
			l12.7,0.9l68.1,4.8l-7.6,44.2l-8.8-1l-0.1,0l-0.1,0c-6.7-0.7-14.4-1.3-22.8-1.8c-8.5-0.5-17.2-0.8-25.7-0.8
			c-4.6,0-10.4,0.3-17.7,0.8c-6.8,0.5-13.8,1.1-20.7,1.7l-0.2,0l-0.2,0c-2.9,0.4-5.9,0.7-9,1c-0.5-37.9-3-76.6-7.4-115.4
			c-4.7-41.4-12.8-81.7-24-119.8L1349,55.7 M1344.6,40l-47.1,48.4c12.3,39.8,21,81.5,25.9,125.2c4.9,43.7,7.4,86.8,7.4,129.2
			c8.5-0.6,16.7-1.5,24.6-2.4c6.7-0.6,13.5-1.2,20.4-1.7c6.8-0.5,12.4-0.7,16.7-0.7c8.3,0,16.6,0.2,24.9,0.7
			c8.3,0.5,15.7,1.1,22.2,1.7l21.9,2.4l12.5-72.4l-83.5-5.9c-0.2-8.1-0.6-15.7-1-22.5c-0.5-6.8-0.9-13.5-1.3-20.1h44.1l16.5-54.3
			h-66c-2.5-16.6-4.5-28.9-6.1-36.7c-0.9-4.6-1.8-8.5-2.7-11.7l54.2,5.9l41.8-51.9L1344.6,40L1344.6,40z"/>
	</g>
	<path id="XMLID_64_" style="display:none;" d="M1347,48.7l109.3,29l-31.6,39.2l-50-5.4l-11.4-1.2l3,11c0.8,3.1,1.7,6.9,2.6,11.2
		c1.5,7.7,3.6,19.9,6,36.3l1,6.6h6.7h55.5l-11.8,38.7h-38.3h-8.3l0.6,8.3c0.4,6.5,0.9,13.2,1.3,20c0.4,6.7,0.8,14.2,1,22.2l0.2,7.1
		l7,0.5l74.9,5.3l-9.8,56.7l-14.6-1.6l0,0l0,0c-6.6-0.7-14.2-1.2-22.5-1.7c-8.4-0.5-17-0.7-25.4-0.7c-4.4,0-10.2,0.3-17.2,0.8
		c-6.8,0.5-13.7,1.1-20.6,1.7l-0.1,0l-0.1,0c-5.1,0.6-10.5,1.2-15.9,1.7c-0.3-39.8-2.8-80.7-7.4-121.6
		c-4.8-42.4-13.2-83.5-24.9-122.2L1347,48.7"/>
	<path id="XMLID_63_" style="display:none;" d="M1344.6,40l-47.1,48.4c12.3,39.8,21,81.5,25.9,125.2c4.9,43.7,7.4,86.8,7.4,129.2
		c8.5-0.6,16.7-1.5,24.6-2.4c6.7-0.6,13.5-1.2,20.4-1.7c6.8-0.5,12.4-0.7,16.7-0.7c8.3,0,16.6,0.2,24.9,0.7
		c8.3,0.5,15.7,1.1,22.2,1.7l21.9,2.4l12.5-72.4l-83.5-5.9c-0.2-8.1-0.6-15.7-1-22.5c-0.5-6.8-0.9-13.5-1.3-20.1h44.1l16.5-54.3h-66
		c-2.5-16.6-4.5-28.9-6.1-36.7c-0.9-4.6-1.8-8.5-2.7-11.7l54.2,5.9l41.8-51.9L1344.6,40L1344.6,40z"/>
	<path id="XMLID_29_" style="display:none;" d="M1307.5,219l-4.1-5.4l5.1-4.6c5.8-5.2,10.4-11.5,13.9-18.8c3.4-7.2,5.2-17,5.2-29.4
		c0-11.5-1.9-21.9-5.8-30.7c-3.9-9-9.1-17-15.5-23.9c-6.5-7-14.1-13.3-22.5-18.9c-8.7-5.7-17.8-11.1-27-15.9
		c-9.2-4.9-18.6-9.7-27.8-14.2c-7.7-3.8-14.8-7.8-21.3-11.9l-45.2,34.5c5,15.1,9.4,31.9,13,50c4.1,20,7.6,41.2,10.7,63.1
		c3,21.8,5.8,44.5,8.1,67.3c2,19.6,4,38.9,5.9,57.6l53-18.1c-0.2-4.7-0.6-9.7-1.1-14.8l0-0.1l0-0.1c-0.4-6.1-1.1-12.9-1.8-20.2
		c-0.8-7.3-1.6-14.6-2.5-21.6l-3.5-27.8l16.8,22.5l60.6,81.2l59.7-3.7L1307.5,219z M1281.2,182.4c-2.8,4.4-6.4,7.7-10.9,9.8
		c-3.9,1.8-8.2,2.9-12.6,3.3c-2,0.2-4,0.2-5.9,0.2c-1.9,0-3.9-0.1-5.8-0.2l-5.6-0.5l-1-5.6c-1.3-7.5-2.7-14.4-4-20.6
		c-1.3-6.2-2.7-12-4-17.4c-1.3-5.3-2.7-10.5-4.1-15.6c-1.5-5.2-3-10.4-4.5-15.5l-3.9-13.1l13.1,3.9c9.3,2.8,17.9,6.6,25.6,11.3l0,0
		l0,0c6.7,4.2,12.8,9.5,18.3,15.9c6.2,7.2,9.4,16.2,9.4,26.8C1285.3,172.2,1284,178,1281.2,182.4z"/>
	<g id="XMLID_35_">
		<path id="XMLID_146_" style="fill:#00E300;" d="M1252.1,230.8l8.1,35.5c3.9,17.2,5,33.9,5.3,42.3l-63.5,14c-2-19.2-4-38.9-6.1-59
			c-2.4-22.8-5.1-45.5-8.1-67.3c-3-21.9-6.6-43.1-10.7-63.1c-3.7-18.2-8.1-35.1-13.1-50.2l46.2-35.3c71.1,32.4,117.9,77,122.6,117.1
			c2.2,18.6-5.3,35-21.7,47.3l-5.8,4.4l75.8,91.7l-64.2,16.9L1252.1,230.8z M1225.1,123.3c5,18.1,14.7,54.3,18.5,69.9l1.1,4.7
			l4.8,0.6c1.3,0.2,2.7,0.3,4.1,0.3c13.5,0,24.8-8.7,27.5-14.7c4.6-10.4,6.1-26.6-12.8-44.9c-7.2-7-20.3-17-33.1-23.8l-14.4-7.6
			L1225.1,123.3z"/>
		<path id="XMLID_122_" d="M1211.1,55.9c33.9,15.8,62.3,34.5,82.4,54.4c19.1,18.9,30.3,38,32.3,55.4c1.9,16.2-4.5,30-19,41
			l-11.6,8.8l9.3,11.3l64.2,77.6l-48.8,12.9l-41.5-60.3l-35.9-52.2l6,0.8c1.6,0.2,3.3,0.3,4.9,0.3c15.8,0,29.9-9.8,33.9-18.9
			c4.5-10.2,8.7-30.6-14.4-52.8c-7-6.8-20.3-17.4-34.7-25l-28.7-15.2l8.7,31.3c5,18.1,14.7,54.2,18.4,69.6l0.5,2.1l-0.1-0.1
			l16.1,71.1c3,13.3,4.3,26.4,4.8,35.2l-50,11.1c-1.7-16.7-3.5-33.8-5.3-51.2c-2.4-22.9-5.1-45.6-8.1-67.6
			c-3.1-22-6.7-43.4-10.8-63.5c-3.4-16.6-7.3-32.1-11.8-46.2L1211.1,55.9 M1209.3,39.7l-53.5,40.9c5.6,16.1,10.4,34.2,14.5,54.1
			c4,19.9,7.6,40.8,10.6,62.7c3,21.8,5.7,44.2,8.1,67.1c2.4,22.9,4.7,45.2,6.9,66.8l76.7-17c0,0,0.2-23.9-5.6-49.4l47.1,68.4
			l79.5-21l-78.2-94.5C1370.7,175.8,1332.7,94.5,1209.3,39.7L1209.3,39.7z M1253.5,191.7c-1,0-2.1-0.1-3.2-0.2
			c-3.8-15.8-13.7-52.6-18.5-70.1c13,6.9,25.4,16.8,31.5,22.7c12.1,11.6,17,24.1,11.3,37C1273.2,184.3,1264.7,191.7,1253.5,191.7
			L1253.5,191.7z"/>
	</g>
	<g id="XMLID_70_">
		<path id="XMLID_123_" style="fill:#00E300;" d="M1150.7,321.6h-7c-4.7,0-11.2-0.6-19.3-1.7c-8-1.1-16.7-3.4-26-6.6
			c-9.2-3.2-18.6-8-28.1-14.1c-9.2-6-17.7-14-25.2-23.9c-7.5-10-13.8-22.4-18.7-37c-4.9-14.6-7.4-32.5-7.4-53.2
			c0-20.9,3.2-39.9,9.5-56.5c6.3-16.6,14.7-30.7,25.1-41.9c10.3-11.2,22-19.6,35-25c10.4-4.4,21.1-6.6,31.8-6.6c2.5,0,5,0.1,7.4,0.3
			c13.2,1.2,26.3,6.3,38.9,15c11.3,7.7,21.7,18.9,30.9,33.2l-55,31.3c-2.1-3.6-4.4-7.1-7-10.3c-3.6-4.7-8.2-9-13.6-12.6
			c-6-4.1-13-6.2-20.8-6.2c-10.7,0-16.9,4.8-20.2,8.8c-4,4.9-7,10.7-8.9,17.1c-1.8,6.1-2.8,12.3-3,18.5c-0.2,5.7-0.3,10-0.3,12.8
			c0,31.1,6.1,56.5,18.1,75.5c12.4,19.6,31.1,31.6,55.5,35.5l8.1,1.3v-64.1h-30.2l11.7-25.9l72.5-33.7V324l-54,26.7V321.6z"/>
		<path id="XMLID_117_" d="M1120.5,62.1c2.2,0,4.5,0.1,6.8,0.3c12,1.1,23.9,5.7,35.6,13.8c8.9,6.1,17.2,14.5,24.8,25.1l-42.6,24.3
			c-1.2-1.8-2.5-3.6-3.9-5.3c-4.1-5.3-9.2-10-15.1-14.1c-7.2-4.9-15.5-7.4-24.7-7.4c-13.4,0-21.3,6.2-25.6,11.4
			c-4.6,5.7-8.1,12.2-10.2,19.6c-1.9,6.6-3,13.4-3.3,20.2c-0.2,5.8-0.4,10.2-0.4,13.1c0,32.5,6.4,59.1,19.2,79.3
			c13.5,21.4,33.8,34.4,60.3,38.6l16.2,2.6v-16.4v-48.9v-14h-14h-12.3l6.1-13.6l60.2-28v157l-40,19.8v-10.8v-14h-14
			c-4.3,0-10.5-0.6-18.3-1.7c-7.5-1.1-15.8-3.2-24.6-6.3c-8.7-3.1-17.6-7.5-26.6-13.4c-8.5-5.5-16.4-13-23.4-22.2
			c-7.1-9.3-13-21.1-17.6-35c-4.6-13.9-7-31-7-51c0-20,3-38.2,9.1-54c6-15.7,13.9-29.1,23.7-39.7c9.6-10.4,20.5-18.2,32.5-23.2
			C1100.9,64.1,1110.7,62.1,1120.5,62.1 M1120.5,48.1c-11.7,0-23.2,2.4-34.5,7.1c-14,5.8-26.5,14.7-37.4,26.7
			c-11,12-19.8,26.7-26.5,44.2c-6.6,17.5-10,37.2-10,59c0,21.5,2.6,40,7.7,55.4c5.2,15.4,11.7,28.4,19.8,39c8,10.6,17,19.1,27,25.6
			c10,6.4,19.8,11.4,29.5,14.8c9.7,3.4,18.8,5.8,27.3,7c8.5,1.2,15.2,1.8,20.3,1.8V362l68-33.6V140.7l-84.9,39.5l-17.2,38.1h34v48.9
			c-22.4-3.6-39.3-14.4-50.7-32.3c-11.3-17.9-17-41.9-17-71.8c0-2.7,0.1-6.9,0.3-12.6c0.2-5.7,1.1-11.3,2.7-16.8
			c1.6-5.5,4.1-10.4,7.6-14.6c3.4-4.2,8.4-6.3,14.8-6.3c6.4,0,12,1.6,16.8,4.9c4.8,3.3,8.8,7,12,11.2c3.9,4.8,7.1,10,9.6,15.7
			l67.7-38.6c-10.8-18.2-23-32.1-36.8-41.5c-13.7-9.4-27.8-14.8-42.3-16.1C1125.9,48.2,1123.2,48.1,1120.5,48.1L1120.5,48.1z"/>
	</g>

		<path id="XMLID_61_" style="display:none;fill:#00E300;stroke:#000000;stroke-width:8;stroke-linecap:round;stroke-linejoin:round;stroke-miterlimit:10;" d="
		M1120.5,55.5c2.4,0,4.9,0.1,7.4,0.3c13.1,1.2,26.1,6.2,38.8,14.9c11.1,7.6,21.4,18.7,30.6,32.8l-54.3,31c-2-3.5-4.3-6.9-6.9-10
		c-3.7-4.8-8.2-9-13.6-12.7c-6-4.1-13.1-6.2-21-6.2c-10.8,0-17.1,4.9-20.5,9c-4.1,5-7.1,10.7-8.9,17.2c-1.8,6.1-2.8,12.3-3,18.6
		c-0.2,5.7-0.3,10-0.3,12.9c0,31.2,6.1,56.7,18.1,75.7c12.5,19.7,31.2,31.7,55.7,35.6l8.5,1.4v-8.6v-48.9v-7.4h-7.4h-22.6l11.4-25.2
		l71.9-33.4v171.5l-53.3,26.3v-21.5v-7.4h-7.4c-4.6,0-11.1-0.6-19.2-1.7c-8-1.1-16.7-3.4-25.9-6.6c-9.1-3.2-18.6-7.9-28-14
		c-9.2-5.9-17.6-13.9-25.1-23.8c-7.5-9.9-13.8-22.3-18.6-36.9c-4.9-14.6-7.3-32.4-7.3-53.1c0-20.8,3.2-39.8,9.5-56.4
		c6.3-16.5,14.7-30.6,25-41.8c10.2-11.1,22-19.5,34.9-24.9C1099.2,57.7,1109.8,55.5,1120.5,55.5"/>
	<path id="XMLID_60_" style="display:none;fill:#00E300;stroke:#D42900;stroke-miterlimit:10;" d="M1120.5,48.1
		c-11.7,0-23.2,2.4-34.5,7.1c-14,5.8-26.5,14.7-37.4,26.7c-11,12-19.8,26.7-26.5,44.2c-6.6,17.5-10,37.2-10,59
		c0,21.5,2.6,40,7.7,55.4c5.2,15.4,11.7,28.4,19.8,39c8,10.6,17,19.1,27,25.6c10,6.4,19.8,11.4,29.5,14.8c9.7,3.4,18.8,5.8,27.3,7
		c8.5,1.2,15.2,1.8,20.3,1.8V362l68-33.6V140.7l-84.9,39.5l-17.2,38.1h34v48.9c-22.4-3.6-39.3-14.4-50.7-32.3
		c-11.3-17.9-17-41.9-17-71.8c0-2.7,0.1-6.9,0.3-12.6c0.2-5.7,1.1-11.3,2.7-16.8c1.6-5.5,4.1-10.4,7.6-14.6
		c3.4-4.2,8.4-6.3,14.8-6.3c6.4,0,12,1.6,16.8,4.9c4.8,3.3,8.8,7,12,11.2c3.9,4.8,7.1,10,9.6,15.7l67.7-38.6
		c-10.8-18.2-23-32.1-36.8-41.5c-13.7-9.4-27.8-14.8-42.3-16.1C1125.9,48.2,1123.2,48.1,1120.5,48.1L1120.5,48.1z"/>
	<path id="XMLID_74_" style="display:none;fill:#00E300;stroke:#D42900;stroke-miterlimit:10;" d="M989.7,56.8
		c11.9,0,24.9,2.9,38.8,8.6c14.6,6,30.2,16.3,46.6,30.6l-31.9,58.5c-3.4-3.1-7-6.1-10.5-8.8c-5.3-4.1-11.1-7.8-17.4-11
		c-7-3.6-13.7-5.4-20.1-5.4c-10.9,0-20.1,4.1-27.2,12.2c-6.9,7.8-10.4,19.4-10.4,34.4c0,17,4.3,31.9,12.7,44.2
		c8.3,12.2,19.5,21.7,33.2,28.4c13.4,6.6,28.8,10.5,45.8,11.7c3.8,0.3,7.6,0.4,11.4,0.4c9.4,0,19-0.8,28.6-2.5l-15.4,55.7
		c-11.8,2.3-24.1,3.5-36.5,3.8c-1.1,0-2.3,0-3.4,0c-12.6,0-25.2-1.4-37.4-4.2c-13.2-3.1-25.9-7.9-37.7-14.4
		c-11.5-6.4-21.8-15.1-30.5-26.1c-8.7-11-15.8-24.5-21-40.2c-5.2-15.7-7.9-34.6-7.9-55.9c0-14.8,2.1-29.5,6.3-43.7
		c4.1-14.1,10-26.9,17.5-37.9c7.4-10.9,16.5-19.9,27.1-26.8c10.3-6.7,22.1-10.6,35-11.3C986.8,56.9,988.3,56.8,989.7,56.8"/>
	<g id="XMLID_73_">
		<path id="XMLID_89_" style="fill:#00E300;" d="M1036.4,316.7c-14.3,0-28.2-1.1-40.2-3.1c-13.1-3.1-25.8-7.9-37.6-14.4
			C947,292.8,936.7,284,928,273c-8.8-11-15.8-24.6-21.1-40.3c-5.2-15.8-7.9-34.6-7.9-56.1c0-14.8,2.1-29.5,6.3-43.8
			c4.2-14.2,10.1-27,17.6-38c7.4-10.9,16.5-19.9,27.2-26.9c10.4-6.8,22.2-10.6,35.2-11.4c1.5-0.1,3-0.1,4.5-0.1
			c11.9,0,25,2.9,38.9,8.6c14.7,6,30.4,16.4,46.9,30.9l-32.3,59.2c-3.6-3.3-7.2-6.3-10.9-9.1c-5.2-4-11-7.7-17.3-11
			c-6.9-3.6-13.6-5.4-19.9-5.4c-10.8,0-19.9,4-27,12c-6.9,7.7-10.4,19.2-10.4,34.1c0,16.9,4.3,31.7,12.7,44
			c8.3,12.1,19.4,21.6,33,28.3c1.1,0.5,2.2,1.1,3.5,1.8c11,5.6,31.5,16,56,16c3.9,0,7.8-0.3,11.7-0.8l-1.8,49.1
			C1062,315.8,1049.5,316.7,1036.4,316.7z"/>
		<path id="XMLID_84_" d="M989.7,63.4c11,0,23.2,2.7,36.3,8.1c12.7,5.2,26.4,14,40.7,26l-25.4,46.6c-1.5-1.3-3.1-2.5-4.6-3.7
			c-5.6-4.3-11.8-8.2-18.4-11.6c-7.9-4.1-15.7-6.2-23.1-6.2c-12.7,0-23.8,5-32.2,14.4c-8,9.1-12.1,22.1-12.1,38.8
			c0,18.3,4.7,34.5,13.9,47.9c9,13.1,21,23.4,35.7,30.6c1,0.5,2.2,1.1,3.4,1.7c11.5,5.9,33,16.8,59.2,16.8c1.5,0,2.9,0,4.4-0.1
			l-1.3,35.3c-9.1,1.1-19.2,1.7-29.7,1.7c-13.9,0-27.3-1-38.8-3c-12.4-2.9-24.4-7.5-35.6-13.7c-10.8-6-20.4-14.2-28.5-24.4
			c-8.2-10.4-14.9-23.2-19.9-38.1c-5-15.1-7.5-33.2-7.5-53.9c0-14.1,2-28.2,6-41.8c3.9-13.5,9.6-25.6,16.7-36.1
			c6.9-10.1,15.4-18.5,25.2-24.9c9.5-6.2,19.9-9.5,31.8-10.3C987,63.5,988.4,63.4,989.7,63.4 M989.7,49.4c-1.6,0-3.3,0-4.9,0.1
			c-14.3,0.9-27.1,5.1-38.6,12.5c-11.4,7.5-21.2,17.1-29.1,28.8c-8,11.7-14.1,25.1-18.5,40c-4.4,15-6.6,30.2-6.6,45.7
			c0,22.3,2.8,41.7,8.3,58.3c5.5,16.6,12.9,30.7,22.2,42.4c9.3,11.7,20.2,21,32.7,27.9c12.5,6.9,25.6,11.9,39.6,15.2
			c12.5,2.2,27.1,3.3,41.6,3.3c15.2,0,30.4-1.2,43.3-3.7l2.3-63.6c-6.6,1.6-12.9,2.3-19,2.3c-25.5,0-46.3-12.1-56.4-17
			c-12.6-6.2-22.7-14.8-30.3-25.9c-7.6-11.1-11.5-24.5-11.5-40c0-13.2,2.9-23,8.6-29.5c5.7-6.4,13-9.7,21.7-9.7
			c5.2,0,10.7,1.5,16.7,4.6c5.9,3.1,11.4,6.5,16.3,10.3c5.8,4.4,11.5,9.4,16.8,15l39.4-72.1c-18.6-17-36.3-28.9-53-35.8
			C1016.5,52.5,1002.6,49.4,989.7,49.4L989.7,49.4z"/>
	</g>
	<g id="XMLID_121_">
		<path id="XMLID_98_" style="fill:#00E300;" d="M883.3,346.8c-1.2-18.8-2.4-44.5-3.4-67.7c-0.6-13.3-1.1-25.9-1.7-35.9
			c-0.7-13-1.3-26.8-1.8-40.9c-0.6-14.3-1-29.4-1.3-44.7c-0.3-15.3-0.4-30.9-0.3-46.5c0.1-13.9,0.3-27.7,0.7-40.9L925.4,56
			c-0.5,28-0.6,56.9-0.1,85.9c0.2,13.2,0.5,27.6,0.8,43.9c0.3,15.5,0.8,31.4,1.5,47.5c0.7,16.1,1.5,32.4,2.5,48.7
			c1.1,17.4,2.2,32.3,3.4,44.5L883.3,346.8z"/>
		<path id="XMLID_79_" d="M918.2,65.3c-0.4,25.1-0.4,50.8,0,76.8c0.2,13.2,0.5,27.6,0.8,43.9c0.3,15.5,0.9,31.5,1.5,47.6
			c0.7,16.1,1.5,32.5,2.5,48.8c0.9,15,1.9,28.3,2.9,39.5l-36.4,14.7c-1-17.3-1.9-38.5-2.8-57.9c-0.6-13.4-1.1-26-1.7-35.9
			c-0.7-12.9-1.3-26.7-1.8-40.8c-0.6-14.3-1-29.3-1.3-44.5c-0.3-15.2-0.4-30.8-0.3-46.3c0.1-12.1,0.3-24,0.6-35.6L918.2,65.3
			 M932.6,46.7l-64,18.3c-0.5,15-0.7,30.4-0.8,46.2c-0.1,15.8,0,31.3,0.3,46.7c0.3,15.3,0.8,30.2,1.3,44.8c0.6,14.5,1.2,28.2,1.9,41
			c1.6,30.3,3.5,85.1,5.7,113.3l64-25.8c-1.6-15.3-2.9-33.2-3.9-49.5c-1-16.3-1.9-32.4-2.5-48.5c-0.7-16.1-1.2-31.9-1.5-47.4
			c-0.3-15.5-0.6-30.1-0.8-43.8C931.8,109.3,931.9,77.6,932.6,46.7L932.6,46.7z"/>
	</g>
	<path id="XMLID_71_" style="display:none;fill:#00E300;stroke:#D42900;stroke-miterlimit:10;" d="M924.8,56.8
		c-0.5,27.8-0.5,56.4-0.1,85.2c0.2,13.2,0.5,27.6,0.8,43.9c0.3,15.5,0.8,31.5,1.5,47.5c0.7,16.1,1.5,32.5,2.5,48.7
		c1.1,17.1,2.2,31.9,3.3,44.1l-49,19.8c-1.2-18.7-2.3-44-3.3-66.8c-0.6-13.3-1.1-25.9-1.7-35.9c-0.7-12.9-1.3-26.7-1.8-40.9
		c-0.6-14.3-1-29.3-1.3-44.7c-0.3-15.3-0.4-30.9-0.3-46.4c0.1-13.8,0.3-27.3,0.7-40.4L924.8,56.8"/>
	<g id="XMLID_58_">
		<path id="XMLID_78_" style="fill:#00E300;" d="M883.3,347.2c-1.2-18.8-2.4-44.7-3.4-68c-0.6-13.3-1.1-25.9-1.7-35.9
			c-0.7-13-1.3-26.8-1.8-40.9c-0.6-14.3-1-29.4-1.3-44.7c-0.3-15.3-0.4-30.9-0.3-46.5c0.1-14,0.3-27.9,0.7-41.2L926.3,52
			c0.6,56.8,11.4,238.1,14.1,274.5L883.3,347.2z"/>
		<path id="XMLID_65_" d="M919.5,61.9c1.5,62.7,10.5,216,13.6,259.9l-43.3,15.6c-1-17.5-2-39-2.8-58.6c-0.6-13.4-1.1-26-1.7-35.9
			c-0.7-12.9-1.3-26.7-1.8-40.8c-0.6-14.3-1-29.3-1.3-44.5c-0.3-15.2-0.4-30.8-0.3-46.2c0.1-12.3,0.3-24.5,0.6-36.3L919.5,61.9
			 M933.3,42.1L933.3,42.1L933.3,42.1z M933.3,42.1c-5.9,2.1-64.7,22.8-64.7,22.8c-0.5,15-0.7,30.4-0.8,46.2
			c-0.1,15.8,0,31.3,0.3,46.7c0.3,15.3,0.8,30.2,1.3,44.8c0.6,14.5,1.2,28.2,1.9,41c1.6,30.3,3.5,85.1,5.7,113.3l70.8-25.6
			C946.3,316,932.3,85,933.3,42.1L933.3,42.1z"/>
	</g>
	<path id="XMLID_88_" style="display:none;fill:#00E300;stroke:#D42900;stroke-miterlimit:10;" d="M893.5,140.7v187.7l-68,33.6
		v-33.3c-5,0-11.8-0.6-20.3-1.8c-8.5-1.2-17.6-3.5-27.3-7c-9.7-3.4-19.6-8.4-29.5-14.8c-10-6.4-19-15-27-25.6
		c-8-10.6-14.6-23.6-19.8-39c-5.2-15.4-7.7-33.9-7.7-55.4c0-21.8,3.3-41.5,10-59c6.6-17.5,15.5-32.2,26.5-44.2
		c11-12,23.5-20.9,37.4-26.7c14-5.8,28.2-8.1,42.6-6.7c14.4,1.3,28.5,6.7,42.3,16.1c13.7,9.4,26,23.3,36.8,41.5l-67.7,38.6
		c-2.5-5.7-5.7-10.9-9.6-15.7c-3.2-4.2-7.2-7.9-12-11.2c-4.8-3.3-10.4-4.9-16.8-4.9c-6.4,0-11.3,2.1-14.8,6.3c-3.4,4.2-6,9-7.6,14.6
		c-1.6,5.5-2.5,11.1-2.7,16.8c-0.2,5.7-0.3,9.9-0.3,12.6c0,29.9,5.7,53.8,17,71.8c11.3,17.9,28.2,28.7,50.7,32.3v-48.9h-34
		l17.2-38.1L893.5,140.7z"/>
	<path id="XMLID_87_" style="display:none;fill:#00E300;stroke:#D42900;stroke-miterlimit:10;" d="M802.2,55.5
		c2.4,0,4.9,0.1,7.4,0.3c13.1,1.2,26.1,6.2,38.8,14.9c11.1,7.6,21.4,18.7,30.6,32.8l-54.3,31c-2-3.5-4.3-6.9-6.9-10
		c-3.7-4.8-8.2-9-13.6-12.7c-6-4.1-13.1-6.2-21-6.2c-10.8,0-17.1,4.9-20.5,9c-4.1,5-7.1,10.7-8.9,17.2c-1.8,6.1-2.8,12.3-3,18.6
		c-0.2,5.7-0.3,10-0.3,12.9c0,31.2,6.1,56.7,18.1,75.7c12.5,19.7,31.2,31.7,55.7,35.6l8.5,1.4v-8.6v-48.9v-7.4h-7.4h-22.6l11.4-25.2
		l71.9-33.4v171.5l-53.3,26.3v-21.5v-7.4h-7.4c-4.6,0-11.1-0.6-19.2-1.7c-8-1.1-16.7-3.4-25.9-6.6c-9.1-3.2-18.6-7.9-28-14
		c-9.2-5.9-17.6-13.9-25.1-23.8c-7.5-9.9-13.8-22.3-18.6-36.9c-4.9-14.6-7.3-32.4-7.3-53.1c0-20.8,3.2-39.8,9.5-56.4
		c6.3-16.5,14.7-30.6,25-41.8c10.2-11.1,22-19.5,34.9-24.9C781,57.7,791.6,55.5,802.2,55.5"/>
	<g id="XMLID_81_">
		<path id="XMLID_49_" style="fill:#00E300;" d="M832.4,321.6h-7c-4.7,0-11.2-0.6-19.3-1.7c-8-1.1-16.7-3.4-26-6.6
			c-9.2-3.2-18.6-8-28.1-14.1c-9.2-6-17.7-14-25.2-23.9c-7.5-10-13.8-22.4-18.7-37c-4.9-14.6-7.4-32.5-7.4-53.2
			c0-20.9,3.2-39.9,9.5-56.5c6.3-16.6,14.7-30.7,25.1-41.9c10.3-11.2,22-19.6,35-25c10.4-4.4,21.1-6.6,31.8-6.6c2.5,0,5,0.1,7.4,0.3
			c13.2,1.2,26.3,6.3,38.9,15c11.3,7.7,21.7,18.9,30.9,33.2l-55,31.3c-2.1-3.6-4.4-7.1-7-10.3c-3.6-4.7-8.2-9-13.6-12.7
			c-6-4.1-13-6.2-20.8-6.2c-10.7,0-16.9,4.8-20.2,8.8c-4,4.9-7,10.7-8.9,17.1c-1.8,6.1-2.8,12.3-3,18.5c-0.2,5.7-0.3,10-0.3,12.8
			c0,31.1,6.1,56.5,18.1,75.5c12.4,19.6,31.1,31.6,55.5,35.5l8.1,1.3v-64.1h-30.2l11.7-25.9l72.5-33.7V324l-54,26.7V321.6z"/>
		<path id="XMLID_31_" d="M802.2,62.1c2.2,0,4.5,0.1,6.8,0.3c12,1.1,23.9,5.7,35.6,13.8c8.9,6.1,17.2,14.5,24.9,25.1L827,125.6
			c-1.2-1.8-2.5-3.6-3.9-5.3c-4.1-5.3-9.2-10-15.1-14.1c-7.2-4.9-15.5-7.4-24.7-7.4c-13.4,0-21.3,6.2-25.6,11.4
			c-4.6,5.7-8.1,12.2-10.2,19.6c-1.9,6.6-3,13.4-3.3,20.2c-0.2,5.8-0.4,10.2-0.4,13.1c0,32.5,6.4,59.1,19.2,79.3
			c13.5,21.4,33.8,34.4,60.3,38.6l16.2,2.6v-16.4v-48.9v-14h-14h-12.3l6.1-13.6l60.2-28v157l-40,19.8v-10.8v-14h-14
			c-4.3,0-10.5-0.6-18.3-1.7c-7.5-1.1-15.8-3.2-24.6-6.3c-8.7-3.1-17.6-7.5-26.6-13.4c-8.5-5.5-16.4-13-23.4-22.2
			c-7.1-9.3-13-21.1-17.6-35c-4.6-13.9-7-31-7-51c0-20,3-38.2,9.1-54c6-15.7,13.9-29.1,23.7-39.7c9.6-10.4,20.5-18.2,32.5-23.2
			C782.7,64.1,792.5,62.1,802.2,62.1 M802.2,48.1c-11.7,0-23.2,2.4-34.5,7.1c-14,5.8-26.5,14.7-37.4,26.7
			c-11,12-19.8,26.7-26.5,44.2c-6.6,17.5-10,37.2-10,59c0,21.5,2.6,40,7.7,55.4c5.2,15.4,11.7,28.4,19.8,39c8,10.6,17,19.1,27,25.6
			c10,6.4,19.8,11.4,29.5,14.8c9.7,3.4,18.8,5.8,27.3,7c8.5,1.2,15.2,1.8,20.3,1.8V362l68-33.6V140.7l-84.9,39.5l-17.2,38.1h34v48.9
			c-22.4-3.6-39.3-14.4-50.7-32.3c-11.3-17.9-17-41.9-17-71.8c0-2.7,0.1-6.9,0.3-12.6c0.2-5.7,1.1-11.3,2.7-16.8
			c1.6-5.5,4.1-10.4,7.6-14.6c3.4-4.2,8.4-6.3,14.8-6.3c6.4,0,12,1.6,16.8,4.9c4.8,3.3,8.8,7,12,11.2c3.9,4.8,7.1,10,9.6,15.7
			l67.7-38.6c-10.8-18.2-23-32.1-36.8-41.5c-13.7-9.4-27.8-14.8-42.3-16.1C807.6,48.2,804.9,48.1,802.2,48.1L802.2,48.1z"/>
	</g>
	<path id="XMLID_135_" style="display:none;fill:#00E300;stroke:#D42900;stroke-miterlimit:10;" d="M698.1,347.3
		c-1.1-5.3-2.5-11.4-4-18.5c-1.3-5.9-2.9-13-4.7-21.3c-1.8-8.4-3.8-17.7-6.1-27.9l-41.8,7.5c-1.8,7.6-3.5,14.5-5.2,20.7
		c-1.7,6.2-3.1,10.8-4.2,14.1l-59.3,24c8.3-27,16.6-77.4,22.9-103.2c6.3-25.8,11.5-49.7,15.7-71.7c4.2-22,7.2-41.4,9.3-58.3
		c2-16.9,3-38.1,3-47.8l48.8-18.8c11.9,29.3,23.3,59.8,34.4,91.5c4.7,13.5,9.5,28,14.5,43.5c4.9,15.5,9.8,31.5,14.5,47.9
		c4.7,16.4,9.1,33.2,13.3,50.4c4.2,17.2,7.8,34.2,10.9,51.2L698.1,347.3z"/>
	<path id="XMLID_134_" style="display:none;fill:#00E300;stroke:#D42900;stroke-miterlimit:10;" d="M671.5,232.1
		c-1.8-6.2-3.6-12.1-5.4-17.8c-1.8-5.7-3.6-11.4-5.4-16.9c-0.7,3.5-1.5,7.3-2.4,11.4c-0.7,3.5-1.5,7.6-2.4,12.3
		c-0.9,4.7-1.9,9.7-3,15L671.5,232.1z"/>
	<path id="XMLID_52_" style="display:none;fill:#00E300;stroke:#D42900;stroke-miterlimit:10;" d="M668.4,55.6
		c10.8,27.1,21.4,55.4,31.5,84.4c4.7,13.3,9.5,27.9,14.4,43.3c4.9,15.5,9.8,31.6,14.4,47.7c4.6,16.2,9.1,33,13.2,50.1
		c3.5,14.7,6.8,29.5,9.6,44.2l-47.9,12.9c-0.7-3.4-1.5-7.1-2.4-11c-1.4-6-2.9-13.1-4.7-21.2c-1.7-8.1-3.7-17.3-6.1-27.9l-1.5-6.9
		l-7,1.3l-41.8,7.5l-4.8,0.9l-1.1,4.7c-1.8,7.6-3.5,14.4-5.2,20.4c-1.1,4.2-2.2,7.7-3,10.5l-42.3,17.1c3.9-15.5,7.6-34.4,11.1-51.5
		c2.9-14.3,5.6-27.7,7.9-37.5c6.3-25.8,11.6-50,15.7-72.1c4.2-22.1,7.3-41.8,9.3-58.8c1.8-15.1,2.8-32.8,3-43.6L668.4,55.6"/>
	<path id="XMLID_51_" style="display:none;fill:#00E300;stroke:#D42900;stroke-miterlimit:10;" d="M643.4,245.6l11.1-2.4l18.5-4
		l7.8-1.7l-2.2-7.6c-1.8-6.3-3.7-12.3-5.4-18c-1.8-5.8-3.7-11.6-5.4-17l-8.8-27.5l-5.4,28.3c-0.6,3.4-1.4,7-2.3,11.2l0,0.1l0,0.1
		l-0.7,3.6c-0.5,2.6-1.1,5.6-1.7,8.7c-0.9,4.6-1.9,9.6-3,14.8L643.4,245.6"/>
	<g id="XMLID_26_">
		<path id="XMLID_201_" style="fill:#00E300;" d="M575.1,343.3c18.5-61,43.7-239.8,47.4-273.6l46-15
			c23.7,58.2,81.8,233.5,92.8,271.9L703.5,339c-1.8-8.4-4.9-22.5-7.6-34.6c-2-9.3-3.8-17.4-4.6-21l-1.4-6.6l-55.4,9.8l-1.1,4.5
			c-1.5,6.5-10.2,40.7-13.7,53.7L575.1,343.3z M653.9,196c-0.6,3.4-1.4,7-2.3,11.3l-2.4,12.5c-0.9,4.6-1.9,9.6-3,14.8l-2.2,10.6
			l36.4-7.8l-2.1-7.2c-1.8-6.3-3.7-12.3-5.4-17.9c-1.8-5.7-3.6-11.4-5.4-17l-8.4-26.1L653.9,196z"/>
		<path id="XMLID_153_" d="M664.5,63.4c23.6,59.9,74,211.1,88.1,258l-43.7,9.3c-1.8-8.2-4.1-18.8-6.1-28.1c-2-9.2-3.8-17.2-4.5-20.8
			l-2.9-13.1l-13.2,2.3l-44.3,7.8l-9.1,1.6l-2.1,9c-1.4,5.9-8.3,33-12.2,48.2l-30.1-1c9.4-35,19.8-94.6,27.5-142.6
			c7.5-46.9,14.7-97.3,17.3-119L664.5,63.4 M634.8,254.2l21.1-4.5l18.5-4l14.7-3.2l-4.2-14.5c-1.8-6.3-3.7-12.4-5.5-18.1
			c-1.8-5.9-3.7-11.6-5.4-17l-16.8-52.1L647,194.7c-0.6,3.3-1.4,6.9-2.3,11.1l0,0.2l0,0.2l-0.7,3.5c-0.5,2.7-1.1,5.6-1.7,8.8
			c-0.9,4.6-1.9,9.5-3,14.7L634.8,254.2 M672.6,46.1L616,64.5c0,9.7-31.4,234.7-50.5,285.5l59.5,2c1.1-3.2,13.4-51.7,15.2-59.3
			l44.3-7.8c2.2,10.3,12.5,57.2,13.7,62.4L770,332C766.9,315,696,101,672.6,46.1L672.6,46.1z M653,236c1.1-5.3,2.1-10.3,3-15
			c0.9-4.7,1.7-8.8,2.4-12.3c0.9-4.1,1.7-7.9,2.4-11.4c1.8,5.6,3.6,11.2,5.4,16.9c1.8,5.7,3.6,11.7,5.4,17.8L653,236L653,236z"/>
	</g>
	<path id="XMLID_129_" style="display:none;fill:#00E300;stroke:#D42900;stroke-miterlimit:10;" d="M610.3,135.3
		c3.7,25.5,6.4,50.5,8.1,75c1.7,24.5,2.5,48.9,2.5,73.2c0,24.3-0.5,39-1.3,63.9l-69.7-11.1c0.9-10.6,1.6-20.4,2.2-29.5
		c0.6-9.1,0.8-17.9,0.8-26.4c0-8.5-0.3-17.2-0.8-26.2c-0.6-8.9-1.3-18.7-2.2-29.2l-12.1,63.8l-44.5,10.6l-24.6-69
		c1.1,15,1.7,27.7,1.7,38.3c0,10.6-0.2,19.2-0.7,25.9c-0.5,7.9-1,14.7-1.7,20.2l-60.2,17c1.3-24,6-66.1,6-92.2
		c0-22.3-0.6-47.2-1.9-74.8c-1.2-27.6-3.9-70.1-7.9-97.7l47.8-16.2l61.6,163.6c2.2-14.7,4.5-30.8,6.7-48.4c1.8-15,3.5-32.3,5.2-52.1
		c1.7-19.8,3.1-40.8,4.2-63.1l66,4.8C601.7,83.3,606.6,109.8,610.3,135.3z"/>
	<path id="XMLID_118_" style="display:none;fill:#00E300;stroke:#D42900;stroke-miterlimit:10;" d="M536.6,58.8l53,3.9
		c5.5,25.4,10,50.2,13.4,73.7c3.7,25.2,6.4,50.2,8,74.4c1.7,24.2,2.5,48.7,2.5,72.7c0,21.1-0.3,34.4-1,55.3l-54.7-8.7
		c0.7-8.1,1.2-15.7,1.6-22.8c0.6-9.2,0.9-18.3,0.9-26.8c0-8.6-0.3-17.5-0.9-26.6c-0.6-8.9-1.3-18.8-2.2-29.4l-4.5-53.6l-10.1,52.9
		l-11.2,59.1l-33.4,7.9l-22.4-62.8l-18.4-51.7l4.1,54.7c1.1,14.7,1.7,27.4,1.7,37.7c0,10.3-0.2,18.9-0.7,25.5l0,0l0,0
		c-0.3,5.6-0.7,10.6-1.1,14.9l-45.4,12.8c0.5-6.2,1-13.1,1.6-20.2c1.7-21,3.7-44.9,3.7-62.1c0-22.2-0.6-47.5-1.9-75.1
		c-0.6-14-2.9-59.8-7.1-92.3l35.3-12l59.1,156.9l9.9,26.4l4.3-27.9c2.2-14.7,4.5-31,6.8-48.6l0,0l0,0c1.8-15,3.6-32.6,5.2-52.4
		C534.2,97.2,535.5,78.4,536.6,58.8"/>
	<g id="XMLID_117_">
		<path id="XMLID_83_" style="fill:#00E300;" d="M415.1,333.9c1.3-39.3,3.1-166.3-3.7-261.9l36.3-12.3l55.7,147.9l5.4-21.7
			c0.2-0.8,18.3-73.1,26.8-127.5l54.7,4c11.8,45,21,220,13.8,258.6h-50.7c5.3-32.2,4.1-68.6,4.1-70.2L556,207L532.7,287l-36.5,8.9
			l-28.1-69.6l0.9,38.3c0,0.4,0.8,37.2,1,56.8L415.1,333.9z"/>
		<path id="XMLID_23_" d="M541.5,65.8l43.2,3.2c4.9,22.9,10,72.2,12.9,127.3c1.6,30.3,2.3,59.5,2.1,82.1
			c-0.2,17.9-0.9,28.9-1.7,35.5h-36.4c4-30.6,3-61.9,2.9-63.5l-3-87.4l-24.4,84l-9.9,34.1l-26.7,6.5L489,259.2l-28.7-71.1l1.7,76.7
			c0,0.4,0.7,30.9,0.9,51.1l-40.6,9.2c1.2-46.4,2.4-159.5-3.6-248.2l24.8-8.4l45.4,120.6l15.8,41.9l10.9-43.4
			C516.3,184.6,532.6,119.3,541.5,65.8 M529.6,50.9c-8,55.2-27.6,133.2-27.6,133.2L451.8,50.9L404,67.1c8,104.6,5.1,251.6,3.7,275.6
			L477,327c0-17.2-1-62.5-1-62.5l16,39.7l46.3-11.3l12.1-41.8c0,0,1.5,43.5-5.5,77h64.5C620,298.7,609,95,595.6,55.7L529.6,50.9
			L529.6,50.9z"/>
	</g>
</g>
<g id="Layer_2" style="display:none;">
	<g id="XMLID_10_" style="display:inline;">
		<path id="XMLID_199_" style="fill:#00E300;" d="M1736,329.1l-65.7,16.2L1608,226.8l2.7,104.3l-62.3,13.1
			c-0.7-32.9-1.6-86.7-2.7-117c-0.5-12.7-1-25.9-1.7-39.6c-0.7-13.6-1.4-26.8-2.2-39.6c-0.8-12.7-1.7-24.8-2.7-36
			c-1-11.3-2.1-21.1-3.2-29.4l54.6-12.5l79.1,137.9c-1.3-15.7-2.8-31.9-4.4-48.5c-1.3-14.2-2.9-30.1-4.7-47.6
			c-1.8-17.5-3.7-35-5.7-52.5l69-12.9c1.6,14.5,2.9,29.7,4,45.4c1.1,15.7,2.1,31.4,2.9,46.9c0.8,15.6,1.5,30.9,2,46
			c0.6,15.1,1.1,29.5,1.5,43.1C1735.2,259.9,1735.8,298.2,1736,329.1z"/>
		<path id="XMLID_196_" d="M1717.3,55.4c1.2,12,2.3,24.4,3.2,37.1c1.1,15.5,2.1,31.2,2.9,46.8c0.8,15.5,1.5,30.9,2,45.9
			c0.6,15.1,1.1,29.6,1.5,43.1c0.8,26.6,1.4,61.7,1.6,94.9l-54.3,13.4l-59.6-113.3l-14.8-28.1l0.8,31.8l2.5,98.1l-47.5,10
			c-0.1-4.4-0.2-9.1-0.3-13.9c-0.6-31.3-1.4-70.2-2.2-94.2c-0.5-13-1-26.4-1.7-39.7c-0.7-13.5-1.4-26.8-2.2-39.7
			c-0.8-12.9-1.7-25.1-2.7-36.2c-0.8-8.4-1.6-16.1-2.4-23l42.6-9.7l76.4,133.1l16.7,29.1l-2.9-33.4c-1.3-15.3-2.8-31.6-4.4-48.5
			c-1.3-14-2.9-29.6-4.7-47.7c-1.6-15.3-3.2-30.7-4.9-45.7L1717.3,55.4 M1723.9,46.7l-69,12.9c2,17.5,3.9,35,5.7,52.5
			c1.8,17.5,3.4,33.4,4.7,47.6c1.6,16.6,3,32.8,4.4,48.5l-79.1-137.9L1536,82.7c1.1,8.3,2.2,18.1,3.2,29.4c1,11.3,1.9,23.3,2.7,36
			c0.8,12.8,1.5,25.9,2.2,39.6c0.7,13.6,1.2,26.8,1.7,39.6c1.1,30.2,2,84.1,2.7,117l62.3-13.1l-2.7-104.3l62.3,118.4l65.7-16.2
			c-0.2-30.8-0.8-69.2-1.7-100.9c-0.5-13.6-1-28-1.5-43.1c-0.6-15.1-1.2-30.5-2-46c-0.8-15.6-1.7-31.2-2.9-46.9
			C1726.8,76.3,1725.4,61.2,1723.9,46.7L1723.9,46.7z"/>
		<path id="XMLID_194_" style="fill:#00E300;" d="M1582.8,274.4l-12.5,71.1l-21.9-2.4c-6.5-0.6-13.9-1.2-22.2-1.7
			c-8.3-0.5-16.6-0.7-24.9-0.7c-4.3,0-9.8,0.2-16.7,0.7c-6.9,0.5-13.6,1-20.4,1.7c-7.9,1-16.1,1.8-24.6,2.4
			c0-41.7-2.5-83.9-7.4-126.9c-4.9-42.9-13.6-83.9-25.9-123l47.1-47.6l125.3,32.7l-41.8,50.9l-54.2-5.8c0.9,3.2,1.8,7.1,2.7,11.5
			c1.6,7.7,3.6,19.7,6.1,36h66l-16.5,53.4H1497c0.4,6.4,0.9,13,1.3,19.7c0.4,6.7,0.8,14.1,1,22.1L1582.8,274.4z"/>
		<path id="XMLID_191_" d="M1455.9,56.6l109.3,28.5l-31.5,38.4l-50.1-5.3l-11.3-1.2l3.1,10.9c0.8,3,1.7,6.7,2.6,11
			c1.5,7.5,3.6,19.5,6,35.7l1,6.6h6.6h55.5l-11.7,37.9H1497h-8.3l0.6,8.2c0.4,6.4,0.9,13,1.3,19.7c0.4,6.6,0.8,14,1,21.8l0.2,7
			l7,0.5l75,5.2l-9.7,55.6l-14.7-1.6l0,0l0,0c-6.6-0.7-14.2-1.2-22.5-1.7c-8.4-0.5-17-0.7-25.4-0.7c-4.4,0-10.2,0.2-17.2,0.7
			c-6.8,0.5-13.7,1-20.6,1.7l-0.1,0l-0.1,0c-5.2,0.6-10.5,1.2-16,1.7c-0.3-39.1-2.8-79.2-7.4-119.4c-4.8-41.6-13.1-81.9-24.8-120
			L1455.9,56.6 M1453.5,48l-47.1,47.6c12.3,39.1,21,80.1,25.9,123c4.9,42.9,7.4,85.2,7.4,126.9c8.5-0.6,16.7-1.4,24.6-2.4
			c6.7-0.6,13.5-1.2,20.4-1.7c6.8-0.5,12.4-0.7,16.7-0.7c8.3,0,16.6,0.2,24.9,0.7c8.3,0.5,15.7,1,22.2,1.7l21.9,2.4l12.5-71.1
			l-83.5-5.8c-0.2-8-0.6-15.4-1-22.1c-0.5-6.7-0.9-13.3-1.3-19.7h44.1l16.5-53.4h-66c-2.5-16.3-4.5-28.4-6.1-36
			c-0.9-4.5-1.8-8.3-2.7-11.5l54.2,5.8l41.8-50.9L1453.5,48L1453.5,48z"/>
		<path id="XMLID_189_" style="fill:#00E300;" d="M1474,270.5l-12.5,72.4l-21.9-2.4c-6.5-0.6-13.9-1.2-22.2-1.7
			c-8.3-0.5-16.6-0.7-24.9-0.7c-4.3,0-9.8,0.2-16.7,0.7c-6.9,0.5-13.6,1.1-20.4,1.7c-7.9,1-16.1,1.8-24.6,2.4
			c0-42.4-2.5-85.5-7.4-129.2c-4.9-43.7-13.6-85.5-25.9-125.2l47.1-48.4l125.3,33.3l-41.8,51.9l-54.2-5.9c0.9,3.3,1.8,7.2,2.7,11.7
			c1.6,7.8,3.6,20.1,6.1,36.7h66l-16.5,54.3h-44.1c0.4,6.5,0.9,13.2,1.3,20.1c0.4,6.8,0.8,14.4,1,22.5L1474,270.5z"/>
		<path id="XMLID_186_" d="M1347,48.7l109.3,29l-31.6,39.2l-50-5.4l-11.4-1.2l3,11c0.8,3.1,1.7,6.9,2.6,11.2
			c1.5,7.7,3.6,19.9,6,36.3l1,6.6h6.7h55.5l-11.8,38.7h-38.3h-8.3l0.6,8.3c0.4,6.5,0.9,13.2,1.3,20c0.4,6.7,0.8,14.2,1,22.2l0.2,7.1
			l7,0.5l74.9,5.3l-9.8,56.7l-14.6-1.6l0,0l0,0c-6.6-0.7-14.2-1.2-22.5-1.7c-8.4-0.5-17-0.7-25.4-0.7c-4.4,0-10.2,0.3-17.2,0.8
			c-6.8,0.5-13.7,1.1-20.6,1.7l-0.1,0l-0.1,0c-5.1,0.6-10.5,1.2-15.9,1.7c-0.3-39.8-2.8-80.7-7.4-121.6
			c-4.8-42.4-13.2-83.5-24.9-122.2L1347,48.7 M1344.6,40l-47.1,48.4c12.3,39.8,21,81.5,25.9,125.2c4.9,43.7,7.4,86.8,7.4,129.2
			c8.5-0.6,16.7-1.5,24.6-2.4c6.7-0.6,13.5-1.2,20.4-1.7c6.8-0.5,12.4-0.7,16.7-0.7c8.3,0,16.6,0.2,24.9,0.7
			c8.3,0.5,15.7,1.1,22.2,1.7l21.9,2.4l12.5-72.4l-83.5-5.9c-0.2-8.1-0.6-15.7-1-22.5c-0.5-6.8-0.9-13.5-1.3-20.1h44.1l16.5-54.3
			h-66c-2.5-16.6-4.5-28.9-6.1-36.7c-0.9-4.6-1.8-8.5-2.7-11.7l54.2,5.9l41.8-51.9L1344.6,40L1344.6,40z"/>
		<path id="XMLID_170_" style="fill:#00E300;" d="M1318,326.6l-63-84.4c0.9,7,1.7,14.3,2.5,21.8c0.8,7.5,1.4,14.3,1.9,20.4
			c0.7,7.3,1.1,14.2,1.3,20.7l-67,22.9c-2.2-21.7-4.5-44-6.9-66.8c-2.4-22.9-5.1-45.2-8.1-67.1c-3-21.8-6.6-42.7-10.6-62.7
			c-4-19.9-8.9-38-14.5-54.1l53.5-40.9c7.4,5,15.7,9.8,24.9,14.3c9.2,4.5,18.5,9.3,28,14.3c9.4,5,18.6,10.4,27.6,16.3
			c9,5.9,16.9,12.5,23.9,20c7,7.5,12.6,16.1,16.8,25.9c4.3,9.8,6.4,21,6.4,33.6c0,13.5-2,24.3-5.9,32.5c-3.9,8.2-9.2,15.2-15.7,21.1
			l82.2,107.3L1318,326.6z M1278,165.2c0-8.8-2.5-16.1-7.6-22c-5.1-5.9-10.6-10.7-16.7-14.5c-7.2-4.4-15.2-7.9-23.9-10.6
			c1.6,5.3,3.1,10.5,4.5,15.6c1.5,5.1,2.9,10.4,4.2,15.8c1.3,5.4,2.7,11.3,4,17.6c1.3,6.3,2.7,13.3,4,20.9c3.4,0.3,6.8,0.3,10.4,0
			c3.6-0.3,7-1.2,10.1-2.6c3.1-1.5,5.7-3.8,7.7-7C1277,175.2,1278,170.8,1278,165.2z"/>
		<path id="XMLID_165_" d="M1207.6,45.4c6.5,4.1,13.7,8.1,21.3,11.9c9.2,4.5,18.5,9.3,27.8,14.2c9.2,4.9,18.3,10.2,27,15.9
			c8.5,5.5,16,11.9,22.5,18.9c6.4,6.8,11.6,14.9,15.5,23.9c3.8,8.9,5.8,19.2,5.8,30.7c0,12.3-1.7,22.2-5.2,29.4
			c-3.5,7.3-8.2,13.6-13.9,18.8l-5.1,4.6l4.1,5.4l73.8,96.3l-59.7,3.7l-60.6-81.2l-16.8-22.5l3.5,27.8c0.9,7,1.7,14.3,2.5,21.6
			c0.8,7.3,1.4,14.1,1.8,20.2l0,0.1l0,0.1c0.5,5.1,0.8,10.1,1.1,14.8l-53,18.1c-1.9-18.8-3.9-38-5.9-57.6
			c-2.4-22.8-5.1-45.5-8.1-67.3c-3-21.9-6.6-43.1-10.7-63.1c-3.7-18.1-8-34.9-13-50L1207.6,45.4 M1251.8,195.7
			c1.9,0,3.9-0.1,5.9-0.2c4.5-0.4,8.7-1.5,12.6-3.3c4.4-2.1,8.1-5.4,10.9-9.8c2.8-4.4,4.2-10.2,4.2-17.1c0-10.6-3.2-19.6-9.4-26.8
			c-5.5-6.4-11.7-11.8-18.3-15.9l0,0l0,0c-7.7-4.7-16.3-8.5-25.6-11.3l-13.1-3.9l3.9,13.1c1.5,5.1,3,10.3,4.5,15.5
			c1.4,5.1,2.8,10.3,4.1,15.6c1.3,5.3,2.7,11.2,4,17.4c1.3,6.2,2.7,13.1,4,20.6l1,5.6l5.6,0.5
			C1247.9,195.6,1249.8,195.7,1251.8,195.7 M1207.3,36.4l-53.5,40.9c5.6,16.1,10.4,34.2,14.5,54.1c4,19.9,7.6,40.8,10.6,62.7
			c3,21.8,5.7,44.2,8.1,67.1c2.4,22.9,4.7,45.2,6.9,66.8l67-22.9c-0.2-6.4-0.7-13.3-1.3-20.7c-0.5-6.2-1.1-13-1.9-20.4
			c-0.8-7.5-1.6-14.7-2.5-21.8l63,84.4l77.5-4.8l-82.2-107.3c6.5-5.9,11.7-12.9,15.7-21.1c3.9-8.2,5.9-19.1,5.9-32.5
			c0-12.6-2.1-23.8-6.4-33.6c-4.3-9.8-9.9-18.5-16.8-25.9c-7-7.5-14.9-14.1-23.9-20c-9-5.9-18.2-11.3-27.6-16.3
			c-9.4-5-18.7-9.7-28-14.3C1223,46.1,1214.7,41.4,1207.3,36.4L1207.3,36.4z M1251.8,188.3c-1.7,0-3.5-0.1-5.1-0.2
			c-1.3-7.6-2.7-14.6-4-20.9c-1.3-6.3-2.7-12.2-4-17.6c-1.3-5.4-2.8-10.7-4.2-15.8c-1.5-5.1-3-10.3-4.5-15.6
			c8.8,2.6,16.7,6.2,23.9,10.6c6.1,3.8,11.6,8.7,16.7,14.5c5.1,5.9,7.6,13.2,7.6,22c0,5.6-1,10-3,13.2c-2,3.2-4.6,5.6-7.7,7
			c-3.1,1.5-6.5,2.3-10.1,2.6C1255.3,188.3,1253.5,188.3,1251.8,188.3L1251.8,188.3z"/>
		<path id="XMLID_163_" style="fill:#00E300;" d="M1211.7,140.7v187.7l-68,33.6v-33.3c-5,0-11.8-0.6-20.3-1.8
			c-8.5-1.2-17.6-3.5-27.3-7c-9.7-3.4-19.6-8.4-29.5-14.8c-10-6.4-19-15-27-25.6c-8-10.6-14.6-23.6-19.8-39
			c-5.2-15.4-7.7-33.9-7.7-55.4c0-21.8,3.3-41.5,10-59c6.6-17.5,15.5-32.2,26.5-44.2c11-12,23.5-20.9,37.4-26.7
			c14-5.8,28.2-8.1,42.6-6.7c14.4,1.3,28.5,6.7,42.3,16.1c13.7,9.4,26,23.3,36.8,41.5l-67.7,38.6c-2.5-5.7-5.7-10.9-9.6-15.7
			c-3.2-4.2-7.2-7.9-12-11.2c-4.8-3.3-10.4-4.9-16.8-4.9c-6.4,0-11.3,2.1-14.8,6.3c-3.4,4.2-6,9-7.6,14.6
			c-1.6,5.5-2.5,11.1-2.7,16.8c-0.2,5.7-0.3,9.9-0.3,12.6c0,29.9,5.7,53.8,17,71.8c11.3,17.9,28.2,28.7,50.7,32.3v-48.9h-34
			l17.2-38.1L1211.7,140.7z"/>
		<path id="XMLID_160_" d="M1120.5,55.5c2.4,0,4.9,0.1,7.4,0.3c13.1,1.2,26.1,6.2,38.8,14.9c11.1,7.6,21.4,18.7,30.6,32.8l-54.3,31
			c-2-3.5-4.3-6.9-6.9-10c-3.7-4.8-8.2-9-13.6-12.7c-6-4.1-13.1-6.2-21-6.2c-10.8,0-17.1,4.9-20.5,9c-4.1,5-7.1,10.7-8.9,17.2
			c-1.8,6.1-2.8,12.3-3,18.6c-0.2,5.7-0.3,10-0.3,12.9c0,31.2,6.1,56.7,18.1,75.7c12.5,19.7,31.2,31.7,55.7,35.6l8.5,1.4v-8.6v-48.9
			v-7.4h-7.4h-22.6l11.4-25.2l71.9-33.4v171.5l-53.3,26.3v-21.5v-7.4h-7.4c-4.6,0-11.1-0.6-19.2-1.7c-8-1.1-16.7-3.4-25.9-6.6
			c-9.1-3.2-18.6-7.9-28-14c-9.2-5.9-17.6-13.9-25.1-23.8c-7.5-9.9-13.8-22.3-18.6-36.9c-4.9-14.6-7.3-32.4-7.3-53.1
			c0-20.8,3.2-39.8,9.5-56.4c6.3-16.5,14.7-30.6,25-41.8c10.2-11.1,22-19.5,34.9-24.9C1099.2,57.7,1109.8,55.5,1120.5,55.5
			 M1120.5,48.1c-11.7,0-23.2,2.4-34.5,7.1c-14,5.8-26.5,14.7-37.4,26.7c-11,12-19.8,26.7-26.5,44.2c-6.6,17.5-10,37.2-10,59
			c0,21.5,2.6,40,7.7,55.4c5.2,15.4,11.7,28.4,19.8,39c8,10.6,17,19.1,27,25.6c10,6.4,19.8,11.4,29.5,14.8c9.7,3.4,18.8,5.8,27.3,7
			c8.5,1.2,15.2,1.8,20.3,1.8V362l68-33.6V140.7l-84.9,39.5l-17.2,38.1h34v48.9c-22.4-3.6-39.3-14.4-50.7-32.3
			c-11.3-17.9-17-41.9-17-71.8c0-2.7,0.1-6.9,0.3-12.6c0.2-5.7,1.1-11.3,2.7-16.8c1.6-5.5,4.1-10.4,7.6-14.6
			c3.4-4.2,8.4-6.3,14.8-6.3c6.4,0,12,1.6,16.8,4.9c4.8,3.3,8.8,7,12,11.2c3.9,4.8,7.1,10,9.6,15.7l67.7-38.6
			c-10.8-18.2-23-32.1-36.8-41.5c-13.7-9.4-27.8-14.8-42.3-16.1C1125.9,48.2,1123.2,48.1,1120.5,48.1L1120.5,48.1z"/>
		<path id="XMLID_141_" style="fill:#00E300;" d="M1045,166.6c-5.4-5.6-11-10.6-16.8-15c-4.9-3.8-10.4-7.3-16.3-10.3
			c-6-3.1-11.5-4.6-16.7-4.6c-8.8,0-16,3.2-21.7,9.7c-5.7,6.5-8.6,16.3-8.6,29.5c0,15.5,3.8,28.9,11.5,40
			c7.6,11.1,17.7,19.8,30.3,25.9c12.6,6.2,26.9,9.8,43.1,11c16.2,1.2,32.8-0.3,49.8-4.4l-19.9,71.7c-13.7,2.9-27.8,4.5-42.3,4.8
			c-14.5,0.3-28.7-1.2-42.6-4.4c-13.9-3.2-27.1-8.3-39.6-15.2c-12.5-6.9-23.4-16.2-32.7-27.9c-9.3-11.7-16.7-25.9-22.2-42.4
			c-5.5-16.6-8.3-36-8.3-58.3c0-15.5,2.2-30.8,6.6-45.7c4.4-15,10.6-28.3,18.5-40c8-11.7,17.7-21.3,29.1-28.8
			c11.5-7.5,24.3-11.7,38.6-12.5c14.3-0.9,29.7,2.1,46.5,9c16.7,6.9,34.4,18.8,53,35.8L1045,166.6z"/>
		<path id="XMLID_133_" d="M989.7,56.8c11.9,0,24.9,2.9,38.8,8.6c14.6,6,30.2,16.3,46.6,30.6l-31.9,58.5c-3.4-3.1-7-6.1-10.5-8.8
			c-5.3-4.1-11.1-7.8-17.4-11c-7-3.6-13.7-5.4-20.1-5.4c-10.9,0-20.1,4.1-27.2,12.2c-6.9,7.8-10.4,19.4-10.4,34.4
			c0,17,4.3,31.9,12.7,44.2c8.3,12.2,19.5,21.7,33.2,28.4c13.4,6.6,28.8,10.5,45.8,11.7c3.8,0.3,7.6,0.4,11.4,0.4
			c9.4,0,19-0.8,28.6-2.5l-15.4,55.7c-11.8,2.3-24.1,3.5-36.5,3.8c-1.1,0-2.3,0-3.4,0c-12.6,0-25.2-1.4-37.4-4.2
			c-13.2-3.1-25.9-7.9-37.7-14.4c-11.5-6.4-21.8-15.1-30.5-26.1c-8.7-11-15.8-24.5-21-40.2c-5.2-15.7-7.9-34.6-7.9-55.9
			c0-14.8,2.1-29.5,6.3-43.7c4.1-14.1,10-26.9,17.5-37.9c7.4-10.9,16.5-19.9,27.1-26.8c10.3-6.7,22.1-10.6,35-11.3
			C986.8,56.9,988.3,56.8,989.7,56.8 M989.7,49.4c-1.6,0-3.3,0-4.9,0.1c-14.3,0.9-27.1,5.1-38.6,12.5c-11.4,7.5-21.2,17.1-29.1,28.8
			c-8,11.7-14.1,25.1-18.5,40c-4.4,15-6.6,30.2-6.6,45.7c0,22.3,2.8,41.7,8.3,58.3c5.5,16.6,12.9,30.7,22.2,42.4
			c9.3,11.7,20.2,21,32.7,27.9c12.5,6.9,25.6,11.9,39.6,15.2c12.8,3,25.8,4.4,39,4.4c1.2,0,2.4,0,3.6,0c14.5-0.3,28.6-1.9,42.3-4.8
			l19.9-71.7c-13.3,3.2-26.3,4.8-39,4.8c-3.6,0-7.3-0.1-10.9-0.4c-16.2-1.2-30.5-4.8-43.1-11c-12.6-6.2-22.7-14.8-30.3-25.9
			c-7.6-11.1-11.5-24.5-11.5-40c0-13.2,2.9-23,8.6-29.5c5.7-6.4,13-9.7,21.7-9.7c5.2,0,10.7,1.5,16.7,4.6
			c5.9,3.1,11.4,6.5,16.3,10.3c5.8,4.4,11.5,9.4,16.8,15l39.4-72.1c-18.6-17-36.3-28.9-53-35.8C1016.5,52.5,1002.6,49.4,989.7,49.4
			L989.7,49.4z"/>
		<path id="XMLID_131_" style="fill:#00E300;" d="M932.6,46.7c-0.7,30.9-0.8,62.7-0.3,95.2c0.2,13.8,0.5,28.4,0.8,43.8
			c0.3,15.5,0.8,31.3,1.5,47.4c0.7,16.1,1.5,32.3,2.5,48.5c1,16.3,2.3,34.2,3.9,49.5l-64,25.8c-2.2-28.1-4.2-83-5.7-113.3
			c-0.7-12.8-1.3-26.5-1.9-41c-0.6-14.5-1-29.5-1.3-44.8c-0.3-15.3-0.5-30.9-0.3-46.7c0.1-15.8,0.4-31.2,0.8-46.2L932.6,46.7z"/>
		<path id="XMLID_116_" d="M924.8,56.8c-0.5,27.8-0.5,56.4-0.1,85.2c0.2,13.2,0.5,27.6,0.8,43.9c0.3,15.5,0.8,31.5,1.5,47.5
			c0.7,16.1,1.5,32.5,2.5,48.7c1.1,17.1,2.2,31.9,3.3,44.1l-49,19.8c-1.2-18.7-2.3-44-3.3-66.8c-0.6-13.3-1.1-25.9-1.7-35.9
			c-0.7-12.9-1.3-26.7-1.8-40.9c-0.6-14.3-1-29.3-1.3-44.7c-0.3-15.3-0.4-30.9-0.3-46.4c0.1-13.8,0.3-27.3,0.7-40.4L924.8,56.8
			 M932.6,46.7l-64,18.3c-0.5,15-0.7,30.4-0.8,46.2c-0.1,15.8,0,31.3,0.3,46.7c0.3,15.3,0.8,30.2,1.3,44.8c0.6,14.5,1.2,28.2,1.9,41
			c1.6,30.3,3.5,85.1,5.7,113.3l64-25.8c-1.6-15.3-2.9-33.2-3.9-49.5c-1-16.3-1.9-32.4-2.5-48.5c-0.7-16.1-1.2-31.9-1.5-47.4
			c-0.3-15.5-0.6-30.1-0.8-43.8C931.8,109.3,931.9,77.6,932.6,46.7L932.6,46.7z"/>
		<path id="XMLID_77_" style="fill:#00E300;" d="M893.5,140.7v187.7l-68,33.6v-33.3c-5,0-11.8-0.6-20.3-1.8
			c-8.5-1.2-17.6-3.5-27.3-7c-9.7-3.4-19.6-8.4-29.5-14.8c-10-6.4-19-15-27-25.6c-8-10.6-14.6-23.6-19.8-39
			c-5.2-15.4-7.7-33.9-7.7-55.4c0-21.8,3.3-41.5,10-59c6.6-17.5,15.5-32.2,26.5-44.2c11-12,23.5-20.9,37.4-26.7
			c14-5.8,28.2-8.1,42.6-6.7c14.4,1.3,28.5,6.7,42.3,16.1c13.7,9.4,26,23.3,36.8,41.5l-67.7,38.6c-2.5-5.7-5.7-10.9-9.6-15.7
			c-3.2-4.2-7.2-7.9-12-11.2c-4.8-3.3-10.4-4.9-16.8-4.9c-6.4,0-11.3,2.1-14.8,6.3c-3.4,4.2-6,9-7.6,14.6
			c-1.6,5.5-2.5,11.1-2.7,16.8c-0.2,5.7-0.3,9.9-0.3,12.6c0,29.9,5.7,53.8,17,71.8c11.3,17.9,28.2,28.7,50.7,32.3v-48.9h-34
			l17.2-38.1L893.5,140.7z"/>
		<path id="XMLID_68_" d="M802.2,55.5c2.4,0,4.9,0.1,7.4,0.3c13.1,1.2,26.1,6.2,38.8,14.9c11.1,7.6,21.4,18.7,30.6,32.8l-54.3,31
			c-2-3.5-4.3-6.9-6.9-10c-3.7-4.8-8.2-9-13.6-12.7c-6-4.1-13.1-6.2-21-6.2c-10.8,0-17.1,4.9-20.5,9c-4.1,5-7.1,10.7-8.9,17.2
			c-1.8,6.1-2.8,12.3-3,18.6c-0.2,5.7-0.3,10-0.3,12.9c0,31.2,6.1,56.7,18.1,75.7c12.5,19.7,31.2,31.7,55.7,35.6l8.5,1.4v-8.6v-48.9
			v-7.4h-7.4h-22.6l11.4-25.2l71.9-33.4v171.5l-53.3,26.3v-21.5v-7.4h-7.4c-4.6,0-11.1-0.6-19.2-1.7c-8-1.1-16.7-3.4-25.9-6.6
			c-9.1-3.2-18.6-7.9-28-14c-9.2-5.9-17.6-13.9-25.1-23.8c-7.5-9.9-13.8-22.3-18.6-36.9c-4.9-14.6-7.3-32.4-7.3-53.1
			c0-20.8,3.2-39.8,9.5-56.4c6.3-16.5,14.7-30.6,25-41.8c10.2-11.1,22-19.5,34.9-24.9C781,57.7,791.6,55.5,802.2,55.5 M802.2,48.1
			c-11.7,0-23.2,2.4-34.5,7.1c-14,5.8-26.5,14.7-37.4,26.7c-11,12-19.8,26.7-26.5,44.2c-6.6,17.5-10,37.2-10,59
			c0,21.5,2.6,40,7.7,55.4c5.2,15.4,11.7,28.4,19.8,39c8,10.6,17,19.1,27,25.6c10,6.4,19.8,11.4,29.5,14.8c9.7,3.4,18.8,5.8,27.3,7
			c8.5,1.2,15.2,1.8,20.3,1.8V362l68-33.6V140.7l-84.9,39.5l-17.2,38.1h34v48.9c-22.4-3.6-39.3-14.4-50.7-32.3
			c-11.3-17.9-17-41.9-17-71.8c0-2.7,0.1-6.9,0.3-12.6c0.2-5.7,1.1-11.3,2.7-16.8c1.6-5.5,4.1-10.4,7.6-14.6
			c3.4-4.2,8.4-6.3,14.8-6.3c6.4,0,12,1.6,16.8,4.9c4.8,3.3,8.8,7,12,11.2c3.9,4.8,7.1,10,9.6,15.7l67.7-38.6
			c-10.8-18.2-23-32.1-36.8-41.5c-13.7-9.4-27.8-14.8-42.3-16.1C807.6,48.2,804.9,48.1,802.2,48.1L802.2,48.1z"/>
		<path id="XMLID_59_" style="fill:#00E300;" d="M698.1,347.3c-1.1-5.3-2.5-11.4-4-18.5c-1.3-5.9-2.9-13-4.7-21.3
			c-1.8-8.4-3.8-17.7-6.1-27.9l-41.8,7.5c-1.8,7.6-3.5,14.5-5.2,20.7c-1.7,6.2-3.1,10.8-4.2,14.1l-59.3,24
			c8.3-27,16.6-77.4,22.9-103.2c6.3-25.8,11.5-49.7,15.7-71.7c4.2-22,7.2-41.4,9.3-58.3c2-16.9,3-38.1,3-47.8l48.8-18.8
			c11.9,29.3,23.3,59.8,34.4,91.5c4.7,13.5,9.5,28,14.5,43.5c4.9,15.5,9.8,31.5,14.5,47.9c4.7,16.4,9.1,33.2,13.3,50.4
			c4.2,17.2,7.8,34.2,10.9,51.2L698.1,347.3z M671.5,232.1c-1.8-6.2-3.6-12.1-5.4-17.8c-1.8-5.7-3.6-11.4-5.4-16.9
			c-0.7,3.5-1.5,7.3-2.4,11.4c-0.7,3.5-1.5,7.6-2.4,12.3c-0.9,4.7-1.9,9.7-3,15L671.5,232.1z"/>
		<path id="XMLID_44_" d="M668.4,55.6c10.8,27.1,21.4,55.4,31.5,84.4c4.7,13.3,9.5,27.9,14.4,43.3c4.9,15.5,9.8,31.6,14.4,47.7
			c4.6,16.2,9.1,33,13.2,50.1c3.5,14.7,6.8,29.5,9.6,44.2l-47.9,12.9c-0.7-3.4-1.5-7.1-2.4-11c-1.4-6-2.9-13.1-4.7-21.2
			c-1.7-8.1-3.7-17.3-6.1-27.9l-1.5-6.9l-7,1.3l-41.8,7.5l-4.8,0.9l-1.1,4.7c-1.8,7.6-3.5,14.4-5.2,20.4c-1.1,4.2-2.2,7.7-3,10.5
			l-42.3,17.1c3.9-15.5,7.6-34.4,11.1-51.5c2.9-14.3,5.6-27.7,7.9-37.5c6.3-25.8,11.6-50,15.7-72.1c4.2-22.1,7.3-41.8,9.3-58.8
			c1.8-15.1,2.8-32.8,3-43.6L668.4,55.6 M643.4,245.6l11.1-2.4l18.5-4l7.8-1.7l-2.2-7.6c-1.8-6.3-3.7-12.3-5.4-18
			c-1.8-5.8-3.7-11.6-5.4-17l-8.8-27.5l-5.4,28.3c-0.6,3.4-1.4,7-2.3,11.2l0,0.1l0,0.1l-0.7,3.6c-0.5,2.6-1.1,5.6-1.7,8.7
			c-0.9,4.6-1.9,9.6-3,14.8L643.4,245.6 M672.6,46.1l-48.8,18.8c0,9.7-1,30.9-3,47.8c-2,16.9-5.1,36.3-9.3,58.3
			c-4.2,22-9.4,45.9-15.7,71.7c-6.3,25.8-14.6,76.2-22.9,103.2l59.3-24c1.1-3.2,2.5-7.9,4.2-14.1c1.7-6.2,3.4-13,5.2-20.7l41.8-7.5
			c2.2,10.3,4.3,19.6,6.1,27.9c1.8,8.4,3.4,15.5,4.7,21.3c1.6,7,2.9,13.2,4,18.5l62-16.7c-3.1-17-6.8-34.1-10.9-51.2
			c-4.2-17.2-8.6-33.9-13.3-50.4c-4.7-16.4-9.5-32.4-14.5-47.9c-4.9-15.5-9.8-30-14.5-43.5C695.9,105.9,684.5,75.4,672.6,46.1
			L672.6,46.1z M653,236c1.1-5.3,2.1-10.3,3-15c0.9-4.7,1.7-8.8,2.4-12.3c0.9-4.1,1.7-7.9,2.4-11.4c1.8,5.6,3.6,11.2,5.4,16.9
			c1.8,5.7,3.6,11.7,5.4,17.8L653,236L653,236z"/>
		<path id="XMLID_40_" style="fill:#00E300;" d="M610.3,135.3c3.7,25.5,6.4,50.5,8.1,75c1.7,24.5,2.5,48.9,2.5,73.2
			c0,24.3-0.5,39-1.3,63.9l-69.7-11.1c0.9-10.6,1.6-20.4,2.2-29.5c0.6-9.1,0.8-17.9,0.8-26.4c0-8.5-0.3-17.2-0.8-26.2
			c-0.6-8.9-1.3-18.7-2.2-29.2l-12.1,63.8l-44.5,10.6l-24.6-69c1.1,15,1.7,27.7,1.7,38.3c0,10.6-0.2,19.2-0.7,25.9
			c-0.5,7.9-1,14.7-1.7,20.2l-60.2,17c1.3-24,6-66.1,6-92.2c0-22.3-0.6-47.2-1.9-74.8c-1.2-27.6-3.9-70.1-7.9-97.7l47.8-16.2
			l61.6,163.6c2.2-14.7,4.5-30.8,6.7-48.4c1.8-15,3.5-32.3,5.2-52.1c1.7-19.8,3.1-40.8,4.2-63.1l66,4.8
			C601.7,83.3,606.6,109.8,610.3,135.3z"/>
		<path id="XMLID_27_" d="M536.6,58.8l53,3.9c5.5,25.4,10,50.2,13.4,73.7c3.7,25.2,6.4,50.2,8,74.4c1.7,24.2,2.5,48.7,2.5,72.7
			c0,21.1-0.3,34.4-1,55.3l-54.7-8.7c0.7-8.1,1.2-15.7,1.6-22.8c0.6-9.2,0.9-18.3,0.9-26.8c0-8.6-0.3-17.5-0.9-26.6
			c-0.6-8.9-1.3-18.8-2.2-29.4l-4.5-53.6l-10.1,52.9l-11.2,59.1l-33.4,7.9l-22.4-62.8l-18.4-51.7l4.1,54.7
			c1.1,14.7,1.7,27.4,1.7,37.7c0,10.3-0.2,18.9-0.7,25.5l0,0l0,0c-0.3,5.6-0.7,10.6-1.1,14.9l-45.4,12.8c0.5-6.2,1-13.1,1.6-20.2
			c1.7-21,3.7-44.9,3.7-62.1c0-22.2-0.6-47.5-1.9-75.1c-0.6-14-2.9-59.8-7.1-92.3l35.3-12l59.1,156.9l9.9,26.4l4.3-27.9
			c2.2-14.7,4.5-31,6.8-48.6l0,0l0,0c1.8-15,3.6-32.6,5.2-52.4C534.2,97.2,535.5,78.4,536.6,58.8 M529.6,50.9
			c-1.1,22.3-2.5,43.3-4.2,63.1c-1.7,19.8-3.4,37.2-5.2,52.1c-2.2,17.6-4.5,33.7-6.7,48.4L451.8,50.9L404,67.1
			c4,27.6,6.7,70.1,7.9,97.7c1.2,27.6,1.9,52.5,1.9,74.8c0,26.1-4.7,68.2-6,92.2l60.2-17c0.7-5.6,1.2-12.3,1.7-20.2
			c0.4-6.7,0.7-15.4,0.7-25.9c0-10.6-0.6-23.3-1.7-38.3l24.6,69l44.5-10.6l12.1-63.8c0.9,10.6,1.6,20.3,2.2,29.2
			c0.6,8.9,0.8,17.7,0.8,26.2c0,8.5-0.3,17.3-0.8,26.4c-0.6,9.1-1.3,18.9-2.2,29.5l69.7,11.1c0.9-24.9,1.3-39.5,1.3-63.9
			c0-24.3-0.8-48.7-2.5-73.2c-1.7-24.5-4.4-49.5-8.1-75c-3.7-25.5-8.6-52-14.6-79.6L529.6,50.9L529.6,50.9z"/>
	</g>
</g>
</svg>
